solid OpenSCAD_Model
  facet normal 0.671553 0 0.740957
    outer loop
      vertex 6.34393 -5 7.7301
      vertex 7.07107 -11 7.07107
      vertex 7.07107 -5 7.07107
    endloop
  endfacet
  facet normal 0.671553 0 0.740957
    outer loop
      vertex 7.07107 -11 7.07107
      vertex 6.34393 -5 7.7301
      vertex 6.34393 -11 7.7301
    endloop
  endfacet
  facet normal -0.903988 0 0.427558
    outer loop
      vertex -9.2388 -11 3.82683
      vertex -8.81921 -5 4.71397
      vertex -9.2388 -5 3.82683
    endloop
  endfacet
  facet normal -0.903988 0 0.427558
    outer loop
      vertex -8.81921 -5 4.71397
      vertex -9.2388 -11 3.82683
      vertex -8.81921 -11 4.71397
    endloop
  endfacet
  facet normal 0.941546 -0 0.336885
    outer loop
      vertex 9.2388 -11 3.82683
      vertex 9.5694 -5 2.90285
      vertex 9.2388 -5 3.82683
    endloop
  endfacet
  facet normal 0.941546 0 0.336885
    outer loop
      vertex 9.5694 -5 2.90285
      vertex 9.2388 -11 3.82683
      vertex 9.5694 -11 2.90285
    endloop
  endfacet
  facet normal 0.427552 0 0.903991
    outer loop
      vertex 4 -5 9.15689
      vertex 4.71397 -11 8.81921
      vertex 4.71397 -5 8.81921
    endloop
  endfacet
  facet normal 0.427552 0 0.903991
    outer loop
      vertex 4.71397 -11 8.81921
      vertex 4 -5 9.15689
      vertex 4 -11 9.15689
    endloop
  endfacet
  facet normal 0 1 0
    outer loop
      vertex 3.77117 -5 7.05537
      vertex 4 -5 9
      vertex 4.71397 -5 8.81921
    endloop
  endfacet
  facet normal 0 1 0
    outer loop
      vertex 4.71397 -5 8.81921
      vertex 4 -5 9
      vertex 4 -5 9.15689
    endloop
  endfacet
  facet normal 0 1 -0
    outer loop
      vertex -4 -5 9
      vertex -4.71397 -5 8.81921
      vertex -4 -5 9.15689
    endloop
  endfacet
  facet normal 0 1 0
    outer loop
      vertex 4 -5 9
      vertex 0 -5 8
      vertex -4 -5 9
    endloop
  endfacet
  facet normal 0 1 0
    outer loop
      vertex 3.77117 -5 7.05537
      vertex 4.71397 -5 8.81921
      vertex 5.5557 -5 8.3147
    endloop
  endfacet
  facet normal 0 1 -0
    outer loop
      vertex -0.784137 -5 7.96148
      vertex -4 -5 9
      vertex 0 -5 8
    endloop
  endfacet
  facet normal 0 1 -0
    outer loop
      vertex -1.56072 -5 7.84628
      vertex -4 -5 9
      vertex -0.784137 -5 7.96148
    endloop
  endfacet
  facet normal 0 1 0
    outer loop
      vertex 4 -5 9
      vertex 0.784137 -5 7.96148
      vertex 0 -5 8
    endloop
  endfacet
  facet normal 0 1 0
    outer loop
      vertex 4 -5 9
      vertex 1.56072 -5 7.84628
      vertex 0.784137 -5 7.96148
    endloop
  endfacet
  facet normal 0 1 0
    outer loop
      vertex 4.44456 -5 6.65176
      vertex 5.5557 -5 8.3147
      vertex 6.34393 -5 7.7301
    endloop
  endfacet
  facet normal 0 1 0
    outer loop
      vertex 4 -5 9
      vertex 2.32228 -5 7.65552
      vertex 1.56072 -5 7.84628
    endloop
  endfacet
  facet normal 0 1 0
    outer loop
      vertex 4 -5 9
      vertex 3.06147 -5 7.39104
      vertex 2.32228 -5 7.65552
    endloop
  endfacet
  facet normal 0 1 0
    outer loop
      vertex 5.07515 -5 6.18408
      vertex 6.34393 -5 7.7301
      vertex 7.07107 -5 7.07107
    endloop
  endfacet
  facet normal 0 1 0
    outer loop
      vertex 4 -5 9
      vertex 3.77117 -5 7.05537
      vertex 3.06147 -5 7.39104
    endloop
  endfacet
  facet normal 0 1 0
    outer loop
      vertex 5.5557 -5 8.3147
      vertex 4.44456 -5 6.65176
      vertex 3.77117 -5 7.05537
    endloop
  endfacet
  facet normal 0 1 0
    outer loop
      vertex 5.65685 -5 5.65685
      vertex 7.07107 -5 7.07107
      vertex 7.7301 -5 6.34393
    endloop
  endfacet
  facet normal 0 1 0
    outer loop
      vertex 6.34393 -5 7.7301
      vertex 5.07515 -5 6.18408
      vertex 4.44456 -5 6.65176
    endloop
  endfacet
  facet normal 0 1 0
    outer loop
      vertex 7.07107 -5 7.07107
      vertex 5.65685 -5 5.65685
      vertex 5.07515 -5 6.18408
    endloop
  endfacet
  facet normal 0 1 0
    outer loop
      vertex 6.18408 -5 5.07515
      vertex 7.7301 -5 6.34393
      vertex 8.3147 -5 5.5557
    endloop
  endfacet
  facet normal 0 1 0
    outer loop
      vertex 7.7301 -5 6.34393
      vertex 6.18408 -5 5.07515
      vertex 5.65685 -5 5.65685
    endloop
  endfacet
  facet normal 0 1 0
    outer loop
      vertex 6.65176 -5 4.44456
      vertex 8.3147 -5 5.5557
      vertex 8.81921 -5 4.71397
    endloop
  endfacet
  facet normal 0 1 0
    outer loop
      vertex 8.3147 -5 5.5557
      vertex 6.65176 -5 4.44456
      vertex 6.18408 -5 5.07515
    endloop
  endfacet
  facet normal 0 1 0
    outer loop
      vertex 7.05537 -5 3.77117
      vertex 8.81921 -5 4.71397
      vertex 9.2388 -5 3.82683
    endloop
  endfacet
  facet normal 0 1 0
    outer loop
      vertex 8.81921 -5 4.71397
      vertex 7.05537 -5 3.77117
      vertex 6.65176 -5 4.44456
    endloop
  endfacet
  facet normal 0 1 0
    outer loop
      vertex 9.2388 -5 3.82683
      vertex 7.39104 -5 3.06147
      vertex 7.05537 -5 3.77117
    endloop
  endfacet
  facet normal 0 1 0
    outer loop
      vertex 9.5694 -5 2.90285
      vertex 7.39104 -5 3.06147
      vertex 9.2388 -5 3.82683
    endloop
  endfacet
  facet normal 0 1 0
    outer loop
      vertex 9.5694 -5 2.90285
      vertex 7.65552 -5 2.32228
      vertex 7.39104 -5 3.06147
    endloop
  endfacet
  facet normal 0 1 0
    outer loop
      vertex 9.79555 -5 2
      vertex 7.65552 -5 2.32228
      vertex 9.5694 -5 2.90285
    endloop
  endfacet
  facet normal 0 1 0
    outer loop
      vertex 7.65552 -5 2.32228
      vertex 9.79555 -5 2
      vertex 7.84628 -5 1.56072
    endloop
  endfacet
  facet normal 0 1 -0
    outer loop
      vertex 15 -5 0
      vertex 9.79555 -5 2
      vertex 15 -5 2
    endloop
  endfacet
  facet normal 0 1 0
    outer loop
      vertex 9.79555 -5 2
      vertex 7.96148 -5 0.784137
      vertex 7.84628 -5 1.56072
    endloop
  endfacet
  facet normal 0 1 0
    outer loop
      vertex 8 -5 0
      vertex 9.79555 -5 2
      vertex 15 -5 0
    endloop
  endfacet
  facet normal 0 1 0
    outer loop
      vertex 9.79555 -5 2
      vertex 8 -5 0
      vertex 7.96148 -5 0.784137
    endloop
  endfacet
  facet normal 0 1 -0
    outer loop
      vertex -2.32228 -5 7.65552
      vertex -4 -5 9
      vertex -1.56072 -5 7.84628
    endloop
  endfacet
  facet normal 0 1 -0
    outer loop
      vertex -3.06147 -5 7.39104
      vertex -4 -5 9
      vertex -2.32228 -5 7.65552
    endloop
  endfacet
  facet normal 0 1 -0
    outer loop
      vertex -3.77117 -5 7.05537
      vertex -4 -5 9
      vertex -3.06147 -5 7.39104
    endloop
  endfacet
  facet normal 0 1 0
    outer loop
      vertex -4 -5 9
      vertex -3.77117 -5 7.05537
      vertex -4.71397 -5 8.81921
    endloop
  endfacet
  facet normal 0 1 0
    outer loop
      vertex -4.71397 -5 8.81921
      vertex -3.77117 -5 7.05537
      vertex -5.5557 -5 8.3147
    endloop
  endfacet
  facet normal 0 1 -0
    outer loop
      vertex -4.44456 -5 6.65176
      vertex -5.5557 -5 8.3147
      vertex -3.77117 -5 7.05537
    endloop
  endfacet
  facet normal 0 1 0
    outer loop
      vertex -5.5557 -5 8.3147
      vertex -4.44456 -5 6.65176
      vertex -6.34393 -5 7.7301
    endloop
  endfacet
  facet normal 0 1 -0
    outer loop
      vertex -5.07515 -5 6.18408
      vertex -6.34393 -5 7.7301
      vertex -4.44456 -5 6.65176
    endloop
  endfacet
  facet normal 0 1 0
    outer loop
      vertex -6.34393 -5 7.7301
      vertex -5.07515 -5 6.18408
      vertex -7.07107 -5 7.07107
    endloop
  endfacet
  facet normal 0 1 -0
    outer loop
      vertex -5.65685 -5 5.65685
      vertex -7.07107 -5 7.07107
      vertex -5.07515 -5 6.18408
    endloop
  endfacet
  facet normal 0 1 0
    outer loop
      vertex -7.07107 -5 7.07107
      vertex -5.65685 -5 5.65685
      vertex -7.7301 -5 6.34393
    endloop
  endfacet
  facet normal 0 1 -0
    outer loop
      vertex -6.18408 -5 5.07515
      vertex -7.7301 -5 6.34393
      vertex -5.65685 -5 5.65685
    endloop
  endfacet
  facet normal 0 1 0
    outer loop
      vertex -7.7301 -5 6.34393
      vertex -6.18408 -5 5.07515
      vertex -8.3147 -5 5.5557
    endloop
  endfacet
  facet normal 0 1 -0
    outer loop
      vertex -6.65176 -5 4.44456
      vertex -8.3147 -5 5.5557
      vertex -6.18408 -5 5.07515
    endloop
  endfacet
  facet normal 0 1 0
    outer loop
      vertex -8.3147 -5 5.5557
      vertex -6.65176 -5 4.44456
      vertex -8.81921 -5 4.71397
    endloop
  endfacet
  facet normal 0 1 -0
    outer loop
      vertex -7.05537 -5 3.77117
      vertex -8.81921 -5 4.71397
      vertex -6.65176 -5 4.44456
    endloop
  endfacet
  facet normal 0 1 0
    outer loop
      vertex -8.81921 -5 4.71397
      vertex -7.05537 -5 3.77117
      vertex -9.2388 -5 3.82683
    endloop
  endfacet
  facet normal 0 1 -0
    outer loop
      vertex -7.39104 -5 3.06147
      vertex -9.2388 -5 3.82683
      vertex -7.05537 -5 3.77117
    endloop
  endfacet
  facet normal 0 1 0
    outer loop
      vertex -7.39104 -5 3.06147
      vertex -9.5694 -5 2.90285
      vertex -9.2388 -5 3.82683
    endloop
  endfacet
  facet normal 0 1 -0
    outer loop
      vertex -7.65552 -5 2.32228
      vertex -9.5694 -5 2.90285
      vertex -7.39104 -5 3.06147
    endloop
  endfacet
  facet normal 0 1 0
    outer loop
      vertex -7.65552 -5 2.32228
      vertex -9.79555 -5 2
      vertex -9.5694 -5 2.90285
    endloop
  endfacet
  facet normal 0 1 -0
    outer loop
      vertex -7.84628 -5 1.56072
      vertex -9.79555 -5 2
      vertex -7.65552 -5 2.32228
    endloop
  endfacet
  facet normal 0 1 -0
    outer loop
      vertex -7.96148 -5 0.784137
      vertex -9.79555 -5 2
      vertex -7.84628 -5 1.56072
    endloop
  endfacet
  facet normal 0 1 -0
    outer loop
      vertex -8 -5 0
      vertex -9.79555 -5 2
      vertex -7.96148 -5 0.784137
    endloop
  endfacet
  facet normal 0 1 0
    outer loop
      vertex -9.79555 -5 2
      vertex -8 -5 0
      vertex -15 -5 0
    endloop
  endfacet
  facet normal 0 1 0
    outer loop
      vertex -9.79555 -5 2
      vertex -15 -5 0
      vertex -15 -5 2
    endloop
  endfacet
  facet normal 0.85773 -0 0.5141
    outer loop
      vertex 8.3147 -11 5.5557
      vertex 8.81921 -5 4.71397
      vertex 8.3147 -5 5.5557
    endloop
  endfacet
  facet normal 0.85773 0 0.5141
    outer loop
      vertex 8.81921 -5 4.71397
      vertex 8.3147 -11 5.5557
      vertex 8.81921 -11 4.71397
    endloop
  endfacet
  facet normal 0.903988 -0 0.427558
    outer loop
      vertex 8.81921 -11 4.71397
      vertex 9.2388 -5 3.82683
      vertex 8.81921 -5 4.71397
    endloop
  endfacet
  facet normal 0.903988 0 0.427558
    outer loop
      vertex 9.2388 -5 3.82683
      vertex 8.81921 -11 4.71397
      vertex 9.2388 -11 3.82683
    endloop
  endfacet
  facet normal 0.740957 -0 0.671553
    outer loop
      vertex 7.07107 -11 7.07107
      vertex 7.7301 -5 6.34393
      vertex 7.07107 -5 7.07107
    endloop
  endfacet
  facet normal 0.740957 0 0.671553
    outer loop
      vertex 7.7301 -5 6.34393
      vertex 7.07107 -11 7.07107
      vertex 7.7301 -11 6.34393
    endloop
  endfacet
  facet normal 0.595705 0 0.803203
    outer loop
      vertex 5.5557 -5 8.3147
      vertex 6.34393 -11 7.7301
      vertex 6.34393 -5 7.7301
    endloop
  endfacet
  facet normal 0.595705 0 0.803203
    outer loop
      vertex 6.34393 -11 7.7301
      vertex 5.5557 -5 8.3147
      vertex 5.5557 -11 8.3147
    endloop
  endfacet
  facet normal 0 -1 0
    outer loop
      vertex -3.77117 -11 7.05537
      vertex -4 -11 9
      vertex -4.71397 -11 8.81921
    endloop
  endfacet
  facet normal 0 -1 0
    outer loop
      vertex -4.71397 -11 8.81921
      vertex -4 -11 9
      vertex -4 -11 9.15689
    endloop
  endfacet
  facet normal 0 -1 0
    outer loop
      vertex 4 -11 9
      vertex 4.71397 -11 8.81921
      vertex 4 -11 9.15689
    endloop
  endfacet
  facet normal 0 -1 0
    outer loop
      vertex -4 -11 9
      vertex 0 -11 8
      vertex 4 -11 9
    endloop
  endfacet
  facet normal 0 -1 0
    outer loop
      vertex -3.77117 -11 7.05537
      vertex -4.71397 -11 8.81921
      vertex -5.5557 -11 8.3147
    endloop
  endfacet
  facet normal 0 -1 0
    outer loop
      vertex 0.784137 -11 7.96148
      vertex 4 -11 9
      vertex 0 -11 8
    endloop
  endfacet
  facet normal 0 -1 0
    outer loop
      vertex 1.56072 -11 7.84628
      vertex 4 -11 9
      vertex 0.784137 -11 7.96148
    endloop
  endfacet
  facet normal 0 -1 0
    outer loop
      vertex -4 -11 9
      vertex -0.784137 -11 7.96148
      vertex 0 -11 8
    endloop
  endfacet
  facet normal 0 -1 0
    outer loop
      vertex -4 -11 9
      vertex -1.56072 -11 7.84628
      vertex -0.784137 -11 7.96148
    endloop
  endfacet
  facet normal 0 -1 0
    outer loop
      vertex -4.44456 -11 6.65176
      vertex -5.5557 -11 8.3147
      vertex -6.34393 -11 7.7301
    endloop
  endfacet
  facet normal 0 -1 0
    outer loop
      vertex -4 -11 9
      vertex -2.32228 -11 7.65552
      vertex -1.56072 -11 7.84628
    endloop
  endfacet
  facet normal 0 -1 0
    outer loop
      vertex -4 -11 9
      vertex -3.06147 -11 7.39104
      vertex -2.32228 -11 7.65552
    endloop
  endfacet
  facet normal 0 -1 0
    outer loop
      vertex -5.07515 -11 6.18408
      vertex -6.34393 -11 7.7301
      vertex -7.07107 -11 7.07107
    endloop
  endfacet
  facet normal 0 -1 0
    outer loop
      vertex -4 -11 9
      vertex -3.77117 -11 7.05537
      vertex -3.06147 -11 7.39104
    endloop
  endfacet
  facet normal 0 -1 0
    outer loop
      vertex -5.5557 -11 8.3147
      vertex -4.44456 -11 6.65176
      vertex -3.77117 -11 7.05537
    endloop
  endfacet
  facet normal 0 -1 0
    outer loop
      vertex -5.65685 -11 5.65685
      vertex -7.07107 -11 7.07107
      vertex -7.7301 -11 6.34393
    endloop
  endfacet
  facet normal 0 -1 0
    outer loop
      vertex -6.34393 -11 7.7301
      vertex -5.07515 -11 6.18408
      vertex -4.44456 -11 6.65176
    endloop
  endfacet
  facet normal 0 -1 0
    outer loop
      vertex -7.07107 -11 7.07107
      vertex -5.65685 -11 5.65685
      vertex -5.07515 -11 6.18408
    endloop
  endfacet
  facet normal 0 -1 0
    outer loop
      vertex -6.18408 -11 5.07515
      vertex -7.7301 -11 6.34393
      vertex -8.3147 -11 5.5557
    endloop
  endfacet
  facet normal 0 -1 0
    outer loop
      vertex -7.7301 -11 6.34393
      vertex -6.18408 -11 5.07515
      vertex -5.65685 -11 5.65685
    endloop
  endfacet
  facet normal 0 -1 0
    outer loop
      vertex -6.65176 -11 4.44456
      vertex -8.3147 -11 5.5557
      vertex -8.81921 -11 4.71397
    endloop
  endfacet
  facet normal 0 -1 0
    outer loop
      vertex -8.3147 -11 5.5557
      vertex -6.65176 -11 4.44456
      vertex -6.18408 -11 5.07515
    endloop
  endfacet
  facet normal 0 -1 0
    outer loop
      vertex -7.05537 -11 3.77117
      vertex -8.81921 -11 4.71397
      vertex -9.2388 -11 3.82683
    endloop
  endfacet
  facet normal 0 -1 0
    outer loop
      vertex -8.81921 -11 4.71397
      vertex -7.05537 -11 3.77117
      vertex -6.65176 -11 4.44456
    endloop
  endfacet
  facet normal 0 -1 0
    outer loop
      vertex -9.2388 -11 3.82683
      vertex -7.39104 -11 3.06147
      vertex -7.05537 -11 3.77117
    endloop
  endfacet
  facet normal 0 -1 0
    outer loop
      vertex -9.5694 -11 2.90285
      vertex -7.39104 -11 3.06147
      vertex -9.2388 -11 3.82683
    endloop
  endfacet
  facet normal 0 -1 0
    outer loop
      vertex -9.5694 -11 2.90285
      vertex -7.65552 -11 2.32228
      vertex -7.39104 -11 3.06147
    endloop
  endfacet
  facet normal 0 -1 0
    outer loop
      vertex -9.79555 -11 2
      vertex -7.65552 -11 2.32228
      vertex -9.5694 -11 2.90285
    endloop
  endfacet
  facet normal 0 -1 0
    outer loop
      vertex -7.65552 -11 2.32228
      vertex -9.79555 -11 2
      vertex -7.84628 -11 1.56072
    endloop
  endfacet
  facet normal 0 -1 0
    outer loop
      vertex -15 -11 0
      vertex -9.79555 -11 2
      vertex -15 -11 2
    endloop
  endfacet
  facet normal 0 -1 0
    outer loop
      vertex -9.79555 -11 2
      vertex -7.96148 -11 0.784137
      vertex -7.84628 -11 1.56072
    endloop
  endfacet
  facet normal 0 -1 0
    outer loop
      vertex -8 -11 0
      vertex -9.79555 -11 2
      vertex -15 -11 0
    endloop
  endfacet
  facet normal 0 -1 0
    outer loop
      vertex -9.79555 -11 2
      vertex -8 -11 0
      vertex -7.96148 -11 0.784137
    endloop
  endfacet
  facet normal 0 -1 0
    outer loop
      vertex 2.32228 -11 7.65552
      vertex 4 -11 9
      vertex 1.56072 -11 7.84628
    endloop
  endfacet
  facet normal 0 -1 0
    outer loop
      vertex 3.06147 -11 7.39104
      vertex 4 -11 9
      vertex 2.32228 -11 7.65552
    endloop
  endfacet
  facet normal 0 -1 0
    outer loop
      vertex 3.77117 -11 7.05537
      vertex 4 -11 9
      vertex 3.06147 -11 7.39104
    endloop
  endfacet
  facet normal 0 -1 -0
    outer loop
      vertex 4 -11 9
      vertex 3.77117 -11 7.05537
      vertex 4.71397 -11 8.81921
    endloop
  endfacet
  facet normal 0 -1 -0
    outer loop
      vertex 4.71397 -11 8.81921
      vertex 3.77117 -11 7.05537
      vertex 5.5557 -11 8.3147
    endloop
  endfacet
  facet normal 0 -1 0
    outer loop
      vertex 4.44456 -11 6.65176
      vertex 5.5557 -11 8.3147
      vertex 3.77117 -11 7.05537
    endloop
  endfacet
  facet normal 0 -1 -0
    outer loop
      vertex 5.5557 -11 8.3147
      vertex 4.44456 -11 6.65176
      vertex 6.34393 -11 7.7301
    endloop
  endfacet
  facet normal 0 -1 0
    outer loop
      vertex 5.07515 -11 6.18408
      vertex 6.34393 -11 7.7301
      vertex 4.44456 -11 6.65176
    endloop
  endfacet
  facet normal 0 -1 -0
    outer loop
      vertex 6.34393 -11 7.7301
      vertex 5.07515 -11 6.18408
      vertex 7.07107 -11 7.07107
    endloop
  endfacet
  facet normal 0 -1 0
    outer loop
      vertex 5.65685 -11 5.65685
      vertex 7.07107 -11 7.07107
      vertex 5.07515 -11 6.18408
    endloop
  endfacet
  facet normal 0 -1 -0
    outer loop
      vertex 7.07107 -11 7.07107
      vertex 5.65685 -11 5.65685
      vertex 7.7301 -11 6.34393
    endloop
  endfacet
  facet normal 0 -1 0
    outer loop
      vertex 6.18408 -11 5.07515
      vertex 7.7301 -11 6.34393
      vertex 5.65685 -11 5.65685
    endloop
  endfacet
  facet normal 0 -1 -0
    outer loop
      vertex 7.7301 -11 6.34393
      vertex 6.18408 -11 5.07515
      vertex 8.3147 -11 5.5557
    endloop
  endfacet
  facet normal 0 -1 0
    outer loop
      vertex 6.65176 -11 4.44456
      vertex 8.3147 -11 5.5557
      vertex 6.18408 -11 5.07515
    endloop
  endfacet
  facet normal 0 -1 -0
    outer loop
      vertex 8.3147 -11 5.5557
      vertex 6.65176 -11 4.44456
      vertex 8.81921 -11 4.71397
    endloop
  endfacet
  facet normal 0 -1 0
    outer loop
      vertex 7.05537 -11 3.77117
      vertex 8.81921 -11 4.71397
      vertex 6.65176 -11 4.44456
    endloop
  endfacet
  facet normal 0 -1 -0
    outer loop
      vertex 8.81921 -11 4.71397
      vertex 7.05537 -11 3.77117
      vertex 9.2388 -11 3.82683
    endloop
  endfacet
  facet normal 0 -1 0
    outer loop
      vertex 7.39104 -11 3.06147
      vertex 9.2388 -11 3.82683
      vertex 7.05537 -11 3.77117
    endloop
  endfacet
  facet normal 0 -1 0
    outer loop
      vertex 7.39104 -11 3.06147
      vertex 9.5694 -11 2.90285
      vertex 9.2388 -11 3.82683
    endloop
  endfacet
  facet normal 0 -1 0
    outer loop
      vertex 7.65552 -11 2.32228
      vertex 9.5694 -11 2.90285
      vertex 7.39104 -11 3.06147
    endloop
  endfacet
  facet normal 0 -1 0
    outer loop
      vertex 7.65552 -11 2.32228
      vertex 9.79555 -11 2
      vertex 9.5694 -11 2.90285
    endloop
  endfacet
  facet normal 0 -1 0
    outer loop
      vertex 7.84628 -11 1.56072
      vertex 9.79555 -11 2
      vertex 7.65552 -11 2.32228
    endloop
  endfacet
  facet normal 0 -1 0
    outer loop
      vertex 7.96148 -11 0.784137
      vertex 9.79555 -11 2
      vertex 7.84628 -11 1.56072
    endloop
  endfacet
  facet normal 0 -1 0
    outer loop
      vertex 8 -11 0
      vertex 9.79555 -11 2
      vertex 7.96148 -11 0.784137
    endloop
  endfacet
  facet normal 0 -1 -0
    outer loop
      vertex 9.79555 -11 2
      vertex 8 -11 0
      vertex 15 -11 0
    endloop
  endfacet
  facet normal 0 -1 0
    outer loop
      vertex 9.79555 -11 2
      vertex 15 -11 0
      vertex 15 -11 2
    endloop
  endfacet
  facet normal -0.941546 0 0.336885
    outer loop
      vertex -9.5694 -11 2.90285
      vertex -9.2388 -5 3.82683
      vertex -9.5694 -5 2.90285
    endloop
  endfacet
  facet normal -0.941546 0 0.336885
    outer loop
      vertex -9.2388 -5 3.82683
      vertex -9.5694 -11 2.90285
      vertex -9.2388 -11 3.82683
    endloop
  endfacet
  facet normal -0.970032 0 0.242978
    outer loop
      vertex -9.79555 -11 2
      vertex -9.5694 -5 2.90285
      vertex -9.79555 -5 2
    endloop
  endfacet
  facet normal -0.970032 0 0.242978
    outer loop
      vertex -9.5694 -5 2.90285
      vertex -9.79555 -11 2
      vertex -9.5694 -11 2.90285
    endloop
  endfacet
  facet normal -0.803203 0 0.595705
    outer loop
      vertex -8.3147 -11 5.5557
      vertex -7.7301 -5 6.34393
      vertex -8.3147 -5 5.5557
    endloop
  endfacet
  facet normal -0.803203 0 0.595705
    outer loop
      vertex -7.7301 -5 6.34393
      vertex -8.3147 -11 5.5557
      vertex -7.7301 -11 6.34393
    endloop
  endfacet
  facet normal -0.740957 0 0.671553
    outer loop
      vertex -7.7301 -11 6.34393
      vertex -7.07107 -5 7.07107
      vertex -7.7301 -5 6.34393
    endloop
  endfacet
  facet normal -0.740957 0 0.671553
    outer loop
      vertex -7.07107 -5 7.07107
      vertex -7.7301 -11 6.34393
      vertex -7.07107 -11 7.07107
    endloop
  endfacet
  facet normal -0.5141 0 0.85773
    outer loop
      vertex -5.5557 -5 8.3147
      vertex -4.71397 -11 8.81921
      vertex -4.71397 -5 8.81921
    endloop
  endfacet
  facet normal -0.5141 0 0.85773
    outer loop
      vertex -4.71397 -11 8.81921
      vertex -5.5557 -5 8.3147
      vertex -5.5557 -11 8.3147
    endloop
  endfacet
  facet normal -0.427552 0 0.903991
    outer loop
      vertex -4.71397 -5 8.81921
      vertex -4 -11 9.15689
      vertex -4 -5 9.15689
    endloop
  endfacet
  facet normal -0.427552 0 0.903991
    outer loop
      vertex -4 -11 9.15689
      vertex -4.71397 -5 8.81921
      vertex -4.71397 -11 8.81921
    endloop
  endfacet
  facet normal 0.970032 -0 0.242978
    outer loop
      vertex 9.5694 -11 2.90285
      vertex 9.79555 -5 2
      vertex 9.5694 -5 2.90285
    endloop
  endfacet
  facet normal 0.970032 0 0.242978
    outer loop
      vertex 9.79555 -5 2
      vertex 9.5694 -11 2.90285
      vertex 9.79555 -11 2
    endloop
  endfacet
  facet normal 0.803203 -0 0.595705
    outer loop
      vertex 7.7301 -11 6.34393
      vertex 8.3147 -5 5.5557
      vertex 7.7301 -5 6.34393
    endloop
  endfacet
  facet normal 0.803203 0 0.595705
    outer loop
      vertex 8.3147 -5 5.5557
      vertex 7.7301 -11 6.34393
      vertex 8.3147 -11 5.5557
    endloop
  endfacet
  facet normal 0.5141 0 0.85773
    outer loop
      vertex 4.71397 -5 8.81921
      vertex 5.5557 -11 8.3147
      vertex 5.5557 -5 8.3147
    endloop
  endfacet
  facet normal 0.5141 0 0.85773
    outer loop
      vertex 5.5557 -11 8.3147
      vertex 4.71397 -5 8.81921
      vertex 4.71397 -11 8.81921
    endloop
  endfacet
  facet normal -0.85773 0 0.5141
    outer loop
      vertex -8.81921 -11 4.71397
      vertex -8.3147 -5 5.5557
      vertex -8.81921 -5 4.71397
    endloop
  endfacet
  facet normal -0.85773 0 0.5141
    outer loop
      vertex -8.3147 -5 5.5557
      vertex -8.81921 -11 4.71397
      vertex -8.3147 -11 5.5557
    endloop
  endfacet
  facet normal -0.595705 0 0.803203
    outer loop
      vertex -6.34393 -5 7.7301
      vertex -5.5557 -11 8.3147
      vertex -5.5557 -5 8.3147
    endloop
  endfacet
  facet normal -0.595705 0 0.803203
    outer loop
      vertex -5.5557 -11 8.3147
      vertex -6.34393 -5 7.7301
      vertex -6.34393 -11 7.7301
    endloop
  endfacet
  facet normal -0.671553 0 0.740957
    outer loop
      vertex -7.07107 -5 7.07107
      vertex -6.34393 -11 7.7301
      vertex -6.34393 -5 7.7301
    endloop
  endfacet
  facet normal -0.671553 0 0.740957
    outer loop
      vertex -6.34393 -11 7.7301
      vertex -7.07107 -5 7.07107
      vertex -7.07107 -11 7.07107
    endloop
  endfacet
  facet normal -0.998796 0 -0.0490649
    outer loop
      vertex 8 -11 0
      vertex 7.96148 -5 0.784137
      vertex 8 -5 0
    endloop
  endfacet
  facet normal -0.998796 -0 -0.0490649
    outer loop
      vertex 7.96148 -5 0.784137
      vertex 8 -11 0
      vertex 7.96148 -11 0.784137
    endloop
  endfacet
  facet normal -0.989176 0 -0.146736
    outer loop
      vertex 7.96148 -11 0.784137
      vertex 7.84628 -5 1.56072
      vertex 7.96148 -5 0.784137
    endloop
  endfacet
  facet normal -0.989176 -0 -0.146736
    outer loop
      vertex 7.84628 -5 1.56072
      vertex 7.96148 -11 0.784137
      vertex 7.84628 -11 1.56072
    endloop
  endfacet
  facet normal 0.998796 0 -0.0490649
    outer loop
      vertex -7.96148 -11 0.784137
      vertex -8 -5 0
      vertex -7.96148 -5 0.784137
    endloop
  endfacet
  facet normal 0.998796 0 -0.0490649
    outer loop
      vertex -8 -5 0
      vertex -7.96148 -11 0.784137
      vertex -8 -11 0
    endloop
  endfacet
  facet normal -0.0490649 0 -0.998796
    outer loop
      vertex 0 -11 8
      vertex 0.784137 -5 7.96148
      vertex 0.784137 -11 7.96148
    endloop
  endfacet
  facet normal -0.0490649 0 -0.998796
    outer loop
      vertex 0.784137 -5 7.96148
      vertex 0 -11 8
      vertex 0 -5 8
    endloop
  endfacet
  facet normal -0.740946 0 -0.671564
    outer loop
      vertex 6.18408 -11 5.07515
      vertex 5.65685 -5 5.65685
      vertex 6.18408 -5 5.07515
    endloop
  endfacet
  facet normal -0.740946 -0 -0.671564
    outer loop
      vertex 5.65685 -5 5.65685
      vertex 6.18408 -11 5.07515
      vertex 5.65685 -11 5.65685
    endloop
  endfacet
  facet normal 0.336883 0 -0.941547
    outer loop
      vertex -3.06147 -11 7.39104
      vertex -2.32228 -5 7.65552
      vertex -2.32228 -11 7.65552
    endloop
  endfacet
  facet normal 0.336883 0 -0.941547
    outer loop
      vertex -2.32228 -5 7.65552
      vertex -3.06147 -11 7.39104
      vertex -3.06147 -5 7.39104
    endloop
  endfacet
  facet normal -0.941547 0 -0.336883
    outer loop
      vertex 7.65552 -11 2.32228
      vertex 7.39104 -5 3.06147
      vertex 7.65552 -5 2.32228
    endloop
  endfacet
  facet normal -0.941547 -0 -0.336883
    outer loop
      vertex 7.39104 -5 3.06147
      vertex 7.65552 -11 2.32228
      vertex 7.39104 -11 3.06147
    endloop
  endfacet
  facet normal -0.427562 0 -0.903986
    outer loop
      vertex 3.06147 -11 7.39104
      vertex 3.77117 -5 7.05537
      vertex 3.77117 -11 7.05537
    endloop
  endfacet
  facet normal -0.427562 0 -0.903986
    outer loop
      vertex 3.77117 -5 7.05537
      vertex 3.06147 -11 7.39104
      vertex 3.06147 -5 7.39104
    endloop
  endfacet
  facet normal -0.595701 0 -0.803206
    outer loop
      vertex 4.44456 -11 6.65176
      vertex 5.07515 -5 6.18408
      vertex 5.07515 -11 6.18408
    endloop
  endfacet
  facet normal -0.595701 0 -0.803206
    outer loop
      vertex 5.07515 -5 6.18408
      vertex 4.44456 -11 6.65176
      vertex 4.44456 -5 6.65176
    endloop
  endfacet
  facet normal 0.903986 0 -0.427562
    outer loop
      vertex -7.05537 -11 3.77117
      vertex -7.39104 -5 3.06147
      vertex -7.05537 -5 3.77117
    endloop
  endfacet
  facet normal 0.903986 0 -0.427562
    outer loop
      vertex -7.39104 -5 3.06147
      vertex -7.05537 -11 3.77117
      vertex -7.39104 -11 3.06147
    endloop
  endfacet
  facet normal 0.740946 0 -0.671564
    outer loop
      vertex -5.65685 -11 5.65685
      vertex -6.18408 -5 5.07515
      vertex -5.65685 -5 5.65685
    endloop
  endfacet
  facet normal 0.740946 0 -0.671564
    outer loop
      vertex -6.18408 -5 5.07515
      vertex -5.65685 -11 5.65685
      vertex -6.18408 -11 5.07515
    endloop
  endfacet
  facet normal 0.146736 0 -0.989176
    outer loop
      vertex -1.56072 -11 7.84628
      vertex -0.784137 -5 7.96148
      vertex -0.784137 -11 7.96148
    endloop
  endfacet
  facet normal 0.146736 0 -0.989176
    outer loop
      vertex -0.784137 -5 7.96148
      vertex -1.56072 -11 7.84628
      vertex -1.56072 -5 7.84628
    endloop
  endfacet
  facet normal -0.857731 0 -0.514099
    outer loop
      vertex 7.05537 -11 3.77117
      vertex 6.65176 -5 4.44456
      vertex 7.05537 -5 3.77117
    endloop
  endfacet
  facet normal -0.857731 -0 -0.514099
    outer loop
      vertex 6.65176 -5 4.44456
      vertex 7.05537 -11 3.77117
      vertex 6.65176 -11 4.44456
    endloop
  endfacet
  facet normal -0.903986 0 -0.427562
    outer loop
      vertex 7.39104 -11 3.06147
      vertex 7.05537 -5 3.77117
      vertex 7.39104 -5 3.06147
    endloop
  endfacet
  facet normal -0.903986 -0 -0.427562
    outer loop
      vertex 7.05537 -5 3.77117
      vertex 7.39104 -11 3.06147
      vertex 7.05537 -11 3.77117
    endloop
  endfacet
  facet normal -0.242979 0 -0.970032
    outer loop
      vertex 1.56072 -11 7.84628
      vertex 2.32228 -5 7.65552
      vertex 2.32228 -11 7.65552
    endloop
  endfacet
  facet normal -0.242979 0 -0.970032
    outer loop
      vertex 2.32228 -5 7.65552
      vertex 1.56072 -11 7.84628
      vertex 1.56072 -5 7.84628
    endloop
  endfacet
  facet normal -0.336883 0 -0.941547
    outer loop
      vertex 2.32228 -11 7.65552
      vertex 3.06147 -5 7.39104
      vertex 3.06147 -11 7.39104
    endloop
  endfacet
  facet normal -0.336883 0 -0.941547
    outer loop
      vertex 3.06147 -5 7.39104
      vertex 2.32228 -11 7.65552
      vertex 2.32228 -5 7.65552
    endloop
  endfacet
  facet normal -0.671564 0 -0.740946
    outer loop
      vertex 5.07515 -11 6.18408
      vertex 5.65685 -5 5.65685
      vertex 5.65685 -11 5.65685
    endloop
  endfacet
  facet normal -0.671564 0 -0.740946
    outer loop
      vertex 5.65685 -5 5.65685
      vertex 5.07515 -11 6.18408
      vertex 5.07515 -5 6.18408
    endloop
  endfacet
  facet normal 0.970032 0 -0.242979
    outer loop
      vertex -7.65552 -11 2.32228
      vertex -7.84628 -5 1.56072
      vertex -7.65552 -5 2.32228
    endloop
  endfacet
  facet normal 0.970032 0 -0.242979
    outer loop
      vertex -7.84628 -5 1.56072
      vertex -7.65552 -11 2.32228
      vertex -7.84628 -11 1.56072
    endloop
  endfacet
  facet normal 0.803206 0 -0.595701
    outer loop
      vertex -6.18408 -11 5.07515
      vertex -6.65176 -5 4.44456
      vertex -6.18408 -5 5.07515
    endloop
  endfacet
  facet normal 0.803206 0 -0.595701
    outer loop
      vertex -6.65176 -5 4.44456
      vertex -6.18408 -11 5.07515
      vertex -6.65176 -11 4.44456
    endloop
  endfacet
  facet normal 0.941547 0 -0.336883
    outer loop
      vertex -7.39104 -11 3.06147
      vertex -7.65552 -5 2.32228
      vertex -7.39104 -5 3.06147
    endloop
  endfacet
  facet normal 0.941547 0 -0.336883
    outer loop
      vertex -7.65552 -5 2.32228
      vertex -7.39104 -11 3.06147
      vertex -7.65552 -11 2.32228
    endloop
  endfacet
  facet normal 0.514099 0 -0.857731
    outer loop
      vertex -4.44456 -11 6.65176
      vertex -3.77117 -5 7.05537
      vertex -3.77117 -11 7.05537
    endloop
  endfacet
  facet normal 0.514099 0 -0.857731
    outer loop
      vertex -3.77117 -5 7.05537
      vertex -4.44456 -11 6.65176
      vertex -4.44456 -5 6.65176
    endloop
  endfacet
  facet normal 0.427562 0 -0.903986
    outer loop
      vertex -3.77117 -11 7.05537
      vertex -3.06147 -5 7.39104
      vertex -3.06147 -11 7.39104
    endloop
  endfacet
  facet normal 0.427562 0 -0.903986
    outer loop
      vertex -3.06147 -5 7.39104
      vertex -3.77117 -11 7.05537
      vertex -3.77117 -5 7.05537
    endloop
  endfacet
  facet normal 0.0490649 0 -0.998796
    outer loop
      vertex -0.784137 -11 7.96148
      vertex 0 -5 8
      vertex 0 -11 8
    endloop
  endfacet
  facet normal 0.0490649 0 -0.998796
    outer loop
      vertex 0 -5 8
      vertex -0.784137 -11 7.96148
      vertex -0.784137 -5 7.96148
    endloop
  endfacet
  facet normal -0.970032 0 -0.242979
    outer loop
      vertex 7.84628 -11 1.56072
      vertex 7.65552 -5 2.32228
      vertex 7.84628 -5 1.56072
    endloop
  endfacet
  facet normal -0.970032 -0 -0.242979
    outer loop
      vertex 7.65552 -5 2.32228
      vertex 7.84628 -11 1.56072
      vertex 7.65552 -11 2.32228
    endloop
  endfacet
  facet normal -0.803206 0 -0.595701
    outer loop
      vertex 6.65176 -11 4.44456
      vertex 6.18408 -5 5.07515
      vertex 6.65176 -5 4.44456
    endloop
  endfacet
  facet normal -0.803206 -0 -0.595701
    outer loop
      vertex 6.18408 -5 5.07515
      vertex 6.65176 -11 4.44456
      vertex 6.18408 -11 5.07515
    endloop
  endfacet
  facet normal -0.146736 0 -0.989176
    outer loop
      vertex 0.784137 -11 7.96148
      vertex 1.56072 -5 7.84628
      vertex 1.56072 -11 7.84628
    endloop
  endfacet
  facet normal -0.146736 0 -0.989176
    outer loop
      vertex 1.56072 -5 7.84628
      vertex 0.784137 -11 7.96148
      vertex 0.784137 -5 7.96148
    endloop
  endfacet
  facet normal -0.514099 0 -0.857731
    outer loop
      vertex 3.77117 -11 7.05537
      vertex 4.44456 -5 6.65176
      vertex 4.44456 -11 6.65176
    endloop
  endfacet
  facet normal -0.514099 0 -0.857731
    outer loop
      vertex 4.44456 -5 6.65176
      vertex 3.77117 -11 7.05537
      vertex 3.77117 -5 7.05537
    endloop
  endfacet
  facet normal 0.857731 0 -0.514099
    outer loop
      vertex -6.65176 -11 4.44456
      vertex -7.05537 -5 3.77117
      vertex -6.65176 -5 4.44456
    endloop
  endfacet
  facet normal 0.857731 0 -0.514099
    outer loop
      vertex -7.05537 -5 3.77117
      vertex -6.65176 -11 4.44456
      vertex -7.05537 -11 3.77117
    endloop
  endfacet
  facet normal 0.989176 0 -0.146736
    outer loop
      vertex -7.84628 -11 1.56072
      vertex -7.96148 -5 0.784137
      vertex -7.84628 -5 1.56072
    endloop
  endfacet
  facet normal 0.989176 0 -0.146736
    outer loop
      vertex -7.96148 -5 0.784137
      vertex -7.84628 -11 1.56072
      vertex -7.96148 -11 0.784137
    endloop
  endfacet
  facet normal 0.595701 0 -0.803206
    outer loop
      vertex -5.07515 -11 6.18408
      vertex -4.44456 -5 6.65176
      vertex -4.44456 -11 6.65176
    endloop
  endfacet
  facet normal 0.595701 0 -0.803206
    outer loop
      vertex -4.44456 -5 6.65176
      vertex -5.07515 -11 6.18408
      vertex -5.07515 -5 6.18408
    endloop
  endfacet
  facet normal 0.671564 0 -0.740946
    outer loop
      vertex -5.65685 -11 5.65685
      vertex -5.07515 -5 6.18408
      vertex -5.07515 -11 6.18408
    endloop
  endfacet
  facet normal 0.671564 0 -0.740946
    outer loop
      vertex -5.07515 -5 6.18408
      vertex -5.65685 -11 5.65685
      vertex -5.65685 -5 5.65685
    endloop
  endfacet
  facet normal 0.242979 0 -0.970032
    outer loop
      vertex -2.32228 -11 7.65552
      vertex -1.56072 -5 7.84628
      vertex -1.56072 -11 7.84628
    endloop
  endfacet
  facet normal 0.242979 0 -0.970032
    outer loop
      vertex -1.56072 -5 7.84628
      vertex -2.32228 -11 7.65552
      vertex -2.32228 -5 7.65552
    endloop
  endfacet
  facet normal 0 0 -1
    outer loop
      vertex -8 -11 0
      vertex -10 -10 0
      vertex -8 -5 0
    endloop
  endfacet
  facet normal 0 0 -1
    outer loop
      vertex -8 -11 0
      vertex -13 -10 0
      vertex -10 -10 0
    endloop
  endfacet
  facet normal -0 0 -1
    outer loop
      vertex -13 -10 0
      vertex -15 -11 0
      vertex -13 -6 0
    endloop
  endfacet
  facet normal 0 0 -1
    outer loop
      vertex -15 -11 0
      vertex -13 -10 0
      vertex -8 -11 0
    endloop
  endfacet
  facet normal 0 0 -1
    outer loop
      vertex -10 -6 0
      vertex -8 -5 0
      vertex -10 -10 0
    endloop
  endfacet
  facet normal 0 0 -1
    outer loop
      vertex -13 -6 0
      vertex -8 -5 0
      vertex -10 -6 0
    endloop
  endfacet
  facet normal 0 0 -1
    outer loop
      vertex -13 -6 0
      vertex -15 -5 0
      vertex -8 -5 0
    endloop
  endfacet
  facet normal 0 0 -1
    outer loop
      vertex -15 -5 0
      vertex -13 -6 0
      vertex -15 -11 0
    endloop
  endfacet
  facet normal 0 0 -1
    outer loop
      vertex 15 -11 0
      vertex 13 -10 0
      vertex 15 -5 0
    endloop
  endfacet
  facet normal 0 0 -1
    outer loop
      vertex 15 -11 0
      vertex 10 -10 0
      vertex 13 -10 0
    endloop
  endfacet
  facet normal -0 0 -1
    outer loop
      vertex 10 -10 0
      vertex 8 -11 0
      vertex 10 -6 0
    endloop
  endfacet
  facet normal 0 0 -1
    outer loop
      vertex 8 -11 0
      vertex 10 -10 0
      vertex 15 -11 0
    endloop
  endfacet
  facet normal 0 0 -1
    outer loop
      vertex 13 -6 0
      vertex 15 -5 0
      vertex 13 -10 0
    endloop
  endfacet
  facet normal 0 0 -1
    outer loop
      vertex 10 -6 0
      vertex 15 -5 0
      vertex 13 -6 0
    endloop
  endfacet
  facet normal 0 0 -1
    outer loop
      vertex 10 -6 0
      vertex 8 -5 0
      vertex 15 -5 0
    endloop
  endfacet
  facet normal 0 0 -1
    outer loop
      vertex 8 -5 0
      vertex 10 -6 0
      vertex 8 -11 0
    endloop
  endfacet
  facet normal -1 0 0
    outer loop
      vertex -15 -11 0
      vertex -15 -5 2
      vertex -15 -5 0
    endloop
  endfacet
  facet normal -1 -0 0
    outer loop
      vertex -15 -5 2
      vertex -15 -11 0
      vertex -15 -11 2
    endloop
  endfacet
  facet normal 0 0 1
    outer loop
      vertex -9.79555 -5 2
      vertex -10 -6 2
      vertex -9.79555 -11 2
    endloop
  endfacet
  facet normal 0 0 1
    outer loop
      vertex -9.79555 -5 2
      vertex -13 -6 2
      vertex -10 -6 2
    endloop
  endfacet
  facet normal 0 0 1
    outer loop
      vertex -13 -6 2
      vertex -15 -5 2
      vertex -13 -10 2
    endloop
  endfacet
  facet normal -0 0 1
    outer loop
      vertex -15 -5 2
      vertex -13 -6 2
      vertex -9.79555 -5 2
    endloop
  endfacet
  facet normal -0 0 1
    outer loop
      vertex -10 -10 2
      vertex -9.79555 -11 2
      vertex -10 -6 2
    endloop
  endfacet
  facet normal -0 0 1
    outer loop
      vertex -13 -10 2
      vertex -9.79555 -11 2
      vertex -10 -10 2
    endloop
  endfacet
  facet normal 0 0 1
    outer loop
      vertex -13 -10 2
      vertex -15 -11 2
      vertex -9.79555 -11 2
    endloop
  endfacet
  facet normal 0 0 1
    outer loop
      vertex -15 -11 2
      vertex -13 -10 2
      vertex -15 -5 2
    endloop
  endfacet
  facet normal 1 -0 0
    outer loop
      vertex -13 -10 2
      vertex -13 -6 0
      vertex -13 -6 2
    endloop
  endfacet
  facet normal 1 0 0
    outer loop
      vertex -13 -6 0
      vertex -13 -10 2
      vertex -13 -10 0
    endloop
  endfacet
  facet normal -1 0 0
    outer loop
      vertex -10 -10 0
      vertex -10 -6 2
      vertex -10 -6 0
    endloop
  endfacet
  facet normal -1 -0 0
    outer loop
      vertex -10 -6 2
      vertex -10 -10 0
      vertex -10 -10 2
    endloop
  endfacet
  facet normal 0 -1 0
    outer loop
      vertex -13 -6 0
      vertex -10 -6 2
      vertex -13 -6 2
    endloop
  endfacet
  facet normal 0 -1 -0
    outer loop
      vertex -10 -6 2
      vertex -13 -6 0
      vertex -10 -6 0
    endloop
  endfacet
  facet normal 0 1 -0
    outer loop
      vertex -10 -10 0
      vertex -13 -10 2
      vertex -10 -10 2
    endloop
  endfacet
  facet normal 0 1 0
    outer loop
      vertex -13 -10 2
      vertex -10 -10 0
      vertex -13 -10 0
    endloop
  endfacet
  facet normal 0 0 1
    outer loop
      vertex 15 -5 2
      vertex 13 -6 2
      vertex 15 -11 2
    endloop
  endfacet
  facet normal -0 0 1
    outer loop
      vertex 9.79555 -5 2
      vertex 13 -6 2
      vertex 15 -5 2
    endloop
  endfacet
  facet normal 0 0 1
    outer loop
      vertex 10 -6 2
      vertex 9.79555 -5 2
      vertex 10 -10 2
    endloop
  endfacet
  facet normal 0 0 1
    outer loop
      vertex 13 -6 2
      vertex 9.79555 -5 2
      vertex 10 -6 2
    endloop
  endfacet
  facet normal -0 0 1
    outer loop
      vertex 13 -10 2
      vertex 15 -11 2
      vertex 13 -6 2
    endloop
  endfacet
  facet normal 0 0 1
    outer loop
      vertex 9.79555 -11 2
      vertex 13 -10 2
      vertex 10 -10 2
    endloop
  endfacet
  facet normal 0 0 1
    outer loop
      vertex 13 -10 2
      vertex 9.79555 -11 2
      vertex 15 -11 2
    endloop
  endfacet
  facet normal 0 0 1
    outer loop
      vertex 9.79555 -11 2
      vertex 10 -10 2
      vertex 9.79555 -5 2
    endloop
  endfacet
  facet normal 1 -0 0
    outer loop
      vertex 15 -11 2
      vertex 15 -5 0
      vertex 15 -5 2
    endloop
  endfacet
  facet normal 1 0 0
    outer loop
      vertex 15 -5 0
      vertex 15 -11 2
      vertex 15 -11 0
    endloop
  endfacet
  facet normal 1 -0 0
    outer loop
      vertex 10 -10 2
      vertex 10 -6 0
      vertex 10 -6 2
    endloop
  endfacet
  facet normal 1 0 0
    outer loop
      vertex 10 -6 0
      vertex 10 -10 2
      vertex 10 -10 0
    endloop
  endfacet
  facet normal -1 0 0
    outer loop
      vertex 13 -10 0
      vertex 13 -6 2
      vertex 13 -6 0
    endloop
  endfacet
  facet normal -1 -0 0
    outer loop
      vertex 13 -6 2
      vertex 13 -10 0
      vertex 13 -10 2
    endloop
  endfacet
  facet normal 0 -1 0
    outer loop
      vertex 10 -6 0
      vertex 13 -6 2
      vertex 10 -6 2
    endloop
  endfacet
  facet normal 0 -1 -0
    outer loop
      vertex 13 -6 2
      vertex 10 -6 0
      vertex 13 -6 0
    endloop
  endfacet
  facet normal 0 1 -0
    outer loop
      vertex 13 -10 0
      vertex 10 -10 2
      vertex 13 -10 2
    endloop
  endfacet
  facet normal 0 1 0
    outer loop
      vertex 10 -10 2
      vertex 13 -10 0
      vertex 10 -10 0
    endloop
  endfacet
  facet normal 0.671553 0 0.740957
    outer loop
      vertex 6.34393 -23 7.7301
      vertex 7.07107 -29 7.07107
      vertex 7.07107 -23 7.07107
    endloop
  endfacet
  facet normal 0.671553 0 0.740957
    outer loop
      vertex 7.07107 -29 7.07107
      vertex 6.34393 -23 7.7301
      vertex 6.34393 -29 7.7301
    endloop
  endfacet
  facet normal -0.903988 0 0.427558
    outer loop
      vertex -9.2388 -29 3.82683
      vertex -8.81921 -23 4.71397
      vertex -9.2388 -23 3.82683
    endloop
  endfacet
  facet normal -0.903988 0 0.427558
    outer loop
      vertex -8.81921 -23 4.71397
      vertex -9.2388 -29 3.82683
      vertex -8.81921 -29 4.71397
    endloop
  endfacet
  facet normal 0.941546 -0 0.336885
    outer loop
      vertex 9.2388 -29 3.82683
      vertex 9.5694 -23 2.90285
      vertex 9.2388 -23 3.82683
    endloop
  endfacet
  facet normal 0.941546 0 0.336885
    outer loop
      vertex 9.5694 -23 2.90285
      vertex 9.2388 -29 3.82683
      vertex 9.5694 -29 2.90285
    endloop
  endfacet
  facet normal 0.427552 0 0.903991
    outer loop
      vertex 4 -23 9.15689
      vertex 4.71397 -29 8.81921
      vertex 4.71397 -23 8.81921
    endloop
  endfacet
  facet normal 0.427552 0 0.903991
    outer loop
      vertex 4.71397 -29 8.81921
      vertex 4 -23 9.15689
      vertex 4 -29 9.15689
    endloop
  endfacet
  facet normal 0 1 0
    outer loop
      vertex 3.77117 -23 7.05537
      vertex 4 -23 9
      vertex 4.71397 -23 8.81921
    endloop
  endfacet
  facet normal 0 1 0
    outer loop
      vertex 4.71397 -23 8.81921
      vertex 4 -23 9
      vertex 4 -23 9.15689
    endloop
  endfacet
  facet normal 0 1 -0
    outer loop
      vertex -4 -23 9
      vertex -4.71397 -23 8.81921
      vertex -4 -23 9.15689
    endloop
  endfacet
  facet normal 0 1 0
    outer loop
      vertex 4 -23 9
      vertex 0 -23 8
      vertex -4 -23 9
    endloop
  endfacet
  facet normal 0 1 0
    outer loop
      vertex 3.77117 -23 7.05537
      vertex 4.71397 -23 8.81921
      vertex 5.5557 -23 8.3147
    endloop
  endfacet
  facet normal 0 1 -0
    outer loop
      vertex -0.784137 -23 7.96148
      vertex -4 -23 9
      vertex 0 -23 8
    endloop
  endfacet
  facet normal 0 1 -0
    outer loop
      vertex -1.56072 -23 7.84628
      vertex -4 -23 9
      vertex -0.784137 -23 7.96148
    endloop
  endfacet
  facet normal 0 1 0
    outer loop
      vertex 4 -23 9
      vertex 0.784137 -23 7.96148
      vertex 0 -23 8
    endloop
  endfacet
  facet normal 0 1 0
    outer loop
      vertex 4 -23 9
      vertex 1.56072 -23 7.84628
      vertex 0.784137 -23 7.96148
    endloop
  endfacet
  facet normal 0 1 0
    outer loop
      vertex 4.44456 -23 6.65176
      vertex 5.5557 -23 8.3147
      vertex 6.34393 -23 7.7301
    endloop
  endfacet
  facet normal 0 1 0
    outer loop
      vertex 4 -23 9
      vertex 2.32228 -23 7.65552
      vertex 1.56072 -23 7.84628
    endloop
  endfacet
  facet normal 0 1 0
    outer loop
      vertex 4 -23 9
      vertex 3.06147 -23 7.39104
      vertex 2.32228 -23 7.65552
    endloop
  endfacet
  facet normal 0 1 0
    outer loop
      vertex 5.07515 -23 6.18408
      vertex 6.34393 -23 7.7301
      vertex 7.07107 -23 7.07107
    endloop
  endfacet
  facet normal 0 1 0
    outer loop
      vertex 4 -23 9
      vertex 3.77117 -23 7.05537
      vertex 3.06147 -23 7.39104
    endloop
  endfacet
  facet normal 0 1 0
    outer loop
      vertex 5.5557 -23 8.3147
      vertex 4.44456 -23 6.65176
      vertex 3.77117 -23 7.05537
    endloop
  endfacet
  facet normal 0 1 0
    outer loop
      vertex 5.65685 -23 5.65685
      vertex 7.07107 -23 7.07107
      vertex 7.7301 -23 6.34393
    endloop
  endfacet
  facet normal 0 1 0
    outer loop
      vertex 6.34393 -23 7.7301
      vertex 5.07515 -23 6.18408
      vertex 4.44456 -23 6.65176
    endloop
  endfacet
  facet normal 0 1 0
    outer loop
      vertex 7.07107 -23 7.07107
      vertex 5.65685 -23 5.65685
      vertex 5.07515 -23 6.18408
    endloop
  endfacet
  facet normal 0 1 0
    outer loop
      vertex 6.18408 -23 5.07515
      vertex 7.7301 -23 6.34393
      vertex 8.3147 -23 5.5557
    endloop
  endfacet
  facet normal 0 1 0
    outer loop
      vertex 7.7301 -23 6.34393
      vertex 6.18408 -23 5.07515
      vertex 5.65685 -23 5.65685
    endloop
  endfacet
  facet normal 0 1 0
    outer loop
      vertex 6.65176 -23 4.44456
      vertex 8.3147 -23 5.5557
      vertex 8.81921 -23 4.71397
    endloop
  endfacet
  facet normal 0 1 0
    outer loop
      vertex 8.3147 -23 5.5557
      vertex 6.65176 -23 4.44456
      vertex 6.18408 -23 5.07515
    endloop
  endfacet
  facet normal 0 1 0
    outer loop
      vertex 7.05537 -23 3.77117
      vertex 8.81921 -23 4.71397
      vertex 9.2388 -23 3.82683
    endloop
  endfacet
  facet normal 0 1 0
    outer loop
      vertex 8.81921 -23 4.71397
      vertex 7.05537 -23 3.77117
      vertex 6.65176 -23 4.44456
    endloop
  endfacet
  facet normal 0 1 0
    outer loop
      vertex 9.2388 -23 3.82683
      vertex 7.39104 -23 3.06147
      vertex 7.05537 -23 3.77117
    endloop
  endfacet
  facet normal 0 1 0
    outer loop
      vertex 9.5694 -23 2.90285
      vertex 7.39104 -23 3.06147
      vertex 9.2388 -23 3.82683
    endloop
  endfacet
  facet normal 0 1 0
    outer loop
      vertex 9.5694 -23 2.90285
      vertex 7.65552 -23 2.32228
      vertex 7.39104 -23 3.06147
    endloop
  endfacet
  facet normal 0 1 0
    outer loop
      vertex 9.79555 -23 2
      vertex 7.65552 -23 2.32228
      vertex 9.5694 -23 2.90285
    endloop
  endfacet
  facet normal 0 1 0
    outer loop
      vertex 7.65552 -23 2.32228
      vertex 9.79555 -23 2
      vertex 7.84628 -23 1.56072
    endloop
  endfacet
  facet normal 0 1 -0
    outer loop
      vertex 15 -23 0
      vertex 9.79555 -23 2
      vertex 15 -23 2
    endloop
  endfacet
  facet normal 0 1 0
    outer loop
      vertex 9.79555 -23 2
      vertex 7.96148 -23 0.784137
      vertex 7.84628 -23 1.56072
    endloop
  endfacet
  facet normal 0 1 0
    outer loop
      vertex 8 -23 0
      vertex 9.79555 -23 2
      vertex 15 -23 0
    endloop
  endfacet
  facet normal 0 1 0
    outer loop
      vertex 9.79555 -23 2
      vertex 8 -23 0
      vertex 7.96148 -23 0.784137
    endloop
  endfacet
  facet normal 0 1 -0
    outer loop
      vertex -2.32228 -23 7.65552
      vertex -4 -23 9
      vertex -1.56072 -23 7.84628
    endloop
  endfacet
  facet normal 0 1 -0
    outer loop
      vertex -3.06147 -23 7.39104
      vertex -4 -23 9
      vertex -2.32228 -23 7.65552
    endloop
  endfacet
  facet normal 0 1 -0
    outer loop
      vertex -3.77117 -23 7.05537
      vertex -4 -23 9
      vertex -3.06147 -23 7.39104
    endloop
  endfacet
  facet normal 0 1 0
    outer loop
      vertex -4 -23 9
      vertex -3.77117 -23 7.05537
      vertex -4.71397 -23 8.81921
    endloop
  endfacet
  facet normal 0 1 0
    outer loop
      vertex -4.71397 -23 8.81921
      vertex -3.77117 -23 7.05537
      vertex -5.5557 -23 8.3147
    endloop
  endfacet
  facet normal 0 1 -0
    outer loop
      vertex -4.44456 -23 6.65176
      vertex -5.5557 -23 8.3147
      vertex -3.77117 -23 7.05537
    endloop
  endfacet
  facet normal 0 1 0
    outer loop
      vertex -5.5557 -23 8.3147
      vertex -4.44456 -23 6.65176
      vertex -6.34393 -23 7.7301
    endloop
  endfacet
  facet normal 0 1 -0
    outer loop
      vertex -5.07515 -23 6.18408
      vertex -6.34393 -23 7.7301
      vertex -4.44456 -23 6.65176
    endloop
  endfacet
  facet normal 0 1 0
    outer loop
      vertex -6.34393 -23 7.7301
      vertex -5.07515 -23 6.18408
      vertex -7.07107 -23 7.07107
    endloop
  endfacet
  facet normal 0 1 -0
    outer loop
      vertex -5.65685 -23 5.65685
      vertex -7.07107 -23 7.07107
      vertex -5.07515 -23 6.18408
    endloop
  endfacet
  facet normal 0 1 0
    outer loop
      vertex -7.07107 -23 7.07107
      vertex -5.65685 -23 5.65685
      vertex -7.7301 -23 6.34393
    endloop
  endfacet
  facet normal 0 1 -0
    outer loop
      vertex -6.18408 -23 5.07515
      vertex -7.7301 -23 6.34393
      vertex -5.65685 -23 5.65685
    endloop
  endfacet
  facet normal 0 1 0
    outer loop
      vertex -7.7301 -23 6.34393
      vertex -6.18408 -23 5.07515
      vertex -8.3147 -23 5.5557
    endloop
  endfacet
  facet normal 0 1 -0
    outer loop
      vertex -6.65176 -23 4.44456
      vertex -8.3147 -23 5.5557
      vertex -6.18408 -23 5.07515
    endloop
  endfacet
  facet normal 0 1 0
    outer loop
      vertex -8.3147 -23 5.5557
      vertex -6.65176 -23 4.44456
      vertex -8.81921 -23 4.71397
    endloop
  endfacet
  facet normal 0 1 -0
    outer loop
      vertex -7.05537 -23 3.77117
      vertex -8.81921 -23 4.71397
      vertex -6.65176 -23 4.44456
    endloop
  endfacet
  facet normal 0 1 0
    outer loop
      vertex -8.81921 -23 4.71397
      vertex -7.05537 -23 3.77117
      vertex -9.2388 -23 3.82683
    endloop
  endfacet
  facet normal 0 1 -0
    outer loop
      vertex -7.39104 -23 3.06147
      vertex -9.2388 -23 3.82683
      vertex -7.05537 -23 3.77117
    endloop
  endfacet
  facet normal 0 1 0
    outer loop
      vertex -7.39104 -23 3.06147
      vertex -9.5694 -23 2.90285
      vertex -9.2388 -23 3.82683
    endloop
  endfacet
  facet normal 0 1 -0
    outer loop
      vertex -7.65552 -23 2.32228
      vertex -9.5694 -23 2.90285
      vertex -7.39104 -23 3.06147
    endloop
  endfacet
  facet normal 0 1 0
    outer loop
      vertex -7.65552 -23 2.32228
      vertex -9.79555 -23 2
      vertex -9.5694 -23 2.90285
    endloop
  endfacet
  facet normal 0 1 -0
    outer loop
      vertex -7.84628 -23 1.56072
      vertex -9.79555 -23 2
      vertex -7.65552 -23 2.32228
    endloop
  endfacet
  facet normal 0 1 -0
    outer loop
      vertex -7.96148 -23 0.784137
      vertex -9.79555 -23 2
      vertex -7.84628 -23 1.56072
    endloop
  endfacet
  facet normal 0 1 -0
    outer loop
      vertex -8 -23 0
      vertex -9.79555 -23 2
      vertex -7.96148 -23 0.784137
    endloop
  endfacet
  facet normal 0 1 0
    outer loop
      vertex -9.79555 -23 2
      vertex -8 -23 0
      vertex -15 -23 0
    endloop
  endfacet
  facet normal 0 1 0
    outer loop
      vertex -9.79555 -23 2
      vertex -15 -23 0
      vertex -15 -23 2
    endloop
  endfacet
  facet normal 0.85773 -0 0.5141
    outer loop
      vertex 8.3147 -29 5.5557
      vertex 8.81921 -23 4.71397
      vertex 8.3147 -23 5.5557
    endloop
  endfacet
  facet normal 0.85773 0 0.5141
    outer loop
      vertex 8.81921 -23 4.71397
      vertex 8.3147 -29 5.5557
      vertex 8.81921 -29 4.71397
    endloop
  endfacet
  facet normal 0.903988 -0 0.427558
    outer loop
      vertex 8.81921 -29 4.71397
      vertex 9.2388 -23 3.82683
      vertex 8.81921 -23 4.71397
    endloop
  endfacet
  facet normal 0.903988 0 0.427558
    outer loop
      vertex 9.2388 -23 3.82683
      vertex 8.81921 -29 4.71397
      vertex 9.2388 -29 3.82683
    endloop
  endfacet
  facet normal 0.740957 -0 0.671553
    outer loop
      vertex 7.07107 -29 7.07107
      vertex 7.7301 -23 6.34393
      vertex 7.07107 -23 7.07107
    endloop
  endfacet
  facet normal 0.740957 0 0.671553
    outer loop
      vertex 7.7301 -23 6.34393
      vertex 7.07107 -29 7.07107
      vertex 7.7301 -29 6.34393
    endloop
  endfacet
  facet normal 0.595705 0 0.803203
    outer loop
      vertex 5.5557 -23 8.3147
      vertex 6.34393 -29 7.7301
      vertex 6.34393 -23 7.7301
    endloop
  endfacet
  facet normal 0.595705 0 0.803203
    outer loop
      vertex 6.34393 -29 7.7301
      vertex 5.5557 -23 8.3147
      vertex 5.5557 -29 8.3147
    endloop
  endfacet
  facet normal 0 -1 0
    outer loop
      vertex -3.77117 -29 7.05537
      vertex -4 -29 9
      vertex -4.71397 -29 8.81921
    endloop
  endfacet
  facet normal 0 -1 0
    outer loop
      vertex -4.71397 -29 8.81921
      vertex -4 -29 9
      vertex -4 -29 9.15689
    endloop
  endfacet
  facet normal 0 -1 0
    outer loop
      vertex 4 -29 9
      vertex 4.71397 -29 8.81921
      vertex 4 -29 9.15689
    endloop
  endfacet
  facet normal 0 -1 0
    outer loop
      vertex -4 -29 9
      vertex 0 -29 8
      vertex 4 -29 9
    endloop
  endfacet
  facet normal 0 -1 0
    outer loop
      vertex -3.77117 -29 7.05537
      vertex -4.71397 -29 8.81921
      vertex -5.5557 -29 8.3147
    endloop
  endfacet
  facet normal 0 -1 0
    outer loop
      vertex 0.784137 -29 7.96148
      vertex 4 -29 9
      vertex 0 -29 8
    endloop
  endfacet
  facet normal 0 -1 0
    outer loop
      vertex 1.56072 -29 7.84628
      vertex 4 -29 9
      vertex 0.784137 -29 7.96148
    endloop
  endfacet
  facet normal 0 -1 0
    outer loop
      vertex -4 -29 9
      vertex -0.784137 -29 7.96148
      vertex 0 -29 8
    endloop
  endfacet
  facet normal 0 -1 0
    outer loop
      vertex -4 -29 9
      vertex -1.56072 -29 7.84628
      vertex -0.784137 -29 7.96148
    endloop
  endfacet
  facet normal 0 -1 0
    outer loop
      vertex -4.44456 -29 6.65176
      vertex -5.5557 -29 8.3147
      vertex -6.34393 -29 7.7301
    endloop
  endfacet
  facet normal 0 -1 0
    outer loop
      vertex -4 -29 9
      vertex -2.32228 -29 7.65552
      vertex -1.56072 -29 7.84628
    endloop
  endfacet
  facet normal 0 -1 0
    outer loop
      vertex -4 -29 9
      vertex -3.06147 -29 7.39104
      vertex -2.32228 -29 7.65552
    endloop
  endfacet
  facet normal 0 -1 0
    outer loop
      vertex -5.07515 -29 6.18408
      vertex -6.34393 -29 7.7301
      vertex -7.07107 -29 7.07107
    endloop
  endfacet
  facet normal 0 -1 0
    outer loop
      vertex -4 -29 9
      vertex -3.77117 -29 7.05537
      vertex -3.06147 -29 7.39104
    endloop
  endfacet
  facet normal 0 -1 0
    outer loop
      vertex -5.5557 -29 8.3147
      vertex -4.44456 -29 6.65176
      vertex -3.77117 -29 7.05537
    endloop
  endfacet
  facet normal 0 -1 0
    outer loop
      vertex -5.65685 -29 5.65685
      vertex -7.07107 -29 7.07107
      vertex -7.7301 -29 6.34393
    endloop
  endfacet
  facet normal 0 -1 0
    outer loop
      vertex -6.34393 -29 7.7301
      vertex -5.07515 -29 6.18408
      vertex -4.44456 -29 6.65176
    endloop
  endfacet
  facet normal 0 -1 0
    outer loop
      vertex -7.07107 -29 7.07107
      vertex -5.65685 -29 5.65685
      vertex -5.07515 -29 6.18408
    endloop
  endfacet
  facet normal 0 -1 0
    outer loop
      vertex -6.18408 -29 5.07515
      vertex -7.7301 -29 6.34393
      vertex -8.3147 -29 5.5557
    endloop
  endfacet
  facet normal 0 -1 0
    outer loop
      vertex -7.7301 -29 6.34393
      vertex -6.18408 -29 5.07515
      vertex -5.65685 -29 5.65685
    endloop
  endfacet
  facet normal 0 -1 0
    outer loop
      vertex -6.65176 -29 4.44456
      vertex -8.3147 -29 5.5557
      vertex -8.81921 -29 4.71397
    endloop
  endfacet
  facet normal 0 -1 0
    outer loop
      vertex -8.3147 -29 5.5557
      vertex -6.65176 -29 4.44456
      vertex -6.18408 -29 5.07515
    endloop
  endfacet
  facet normal 0 -1 0
    outer loop
      vertex -7.05537 -29 3.77117
      vertex -8.81921 -29 4.71397
      vertex -9.2388 -29 3.82683
    endloop
  endfacet
  facet normal 0 -1 0
    outer loop
      vertex -8.81921 -29 4.71397
      vertex -7.05537 -29 3.77117
      vertex -6.65176 -29 4.44456
    endloop
  endfacet
  facet normal 0 -1 0
    outer loop
      vertex -9.2388 -29 3.82683
      vertex -7.39104 -29 3.06147
      vertex -7.05537 -29 3.77117
    endloop
  endfacet
  facet normal 0 -1 0
    outer loop
      vertex -9.5694 -29 2.90285
      vertex -7.39104 -29 3.06147
      vertex -9.2388 -29 3.82683
    endloop
  endfacet
  facet normal 0 -1 0
    outer loop
      vertex -9.5694 -29 2.90285
      vertex -7.65552 -29 2.32228
      vertex -7.39104 -29 3.06147
    endloop
  endfacet
  facet normal 0 -1 0
    outer loop
      vertex -9.79555 -29 2
      vertex -7.65552 -29 2.32228
      vertex -9.5694 -29 2.90285
    endloop
  endfacet
  facet normal 0 -1 0
    outer loop
      vertex -7.65552 -29 2.32228
      vertex -9.79555 -29 2
      vertex -7.84628 -29 1.56072
    endloop
  endfacet
  facet normal 0 -1 0
    outer loop
      vertex -15 -29 0
      vertex -9.79555 -29 2
      vertex -15 -29 2
    endloop
  endfacet
  facet normal 0 -1 0
    outer loop
      vertex -9.79555 -29 2
      vertex -7.96148 -29 0.784137
      vertex -7.84628 -29 1.56072
    endloop
  endfacet
  facet normal 0 -1 0
    outer loop
      vertex -8 -29 0
      vertex -9.79555 -29 2
      vertex -15 -29 0
    endloop
  endfacet
  facet normal 0 -1 0
    outer loop
      vertex -9.79555 -29 2
      vertex -8 -29 0
      vertex -7.96148 -29 0.784137
    endloop
  endfacet
  facet normal 0 -1 0
    outer loop
      vertex 2.32228 -29 7.65552
      vertex 4 -29 9
      vertex 1.56072 -29 7.84628
    endloop
  endfacet
  facet normal 0 -1 0
    outer loop
      vertex 3.06147 -29 7.39104
      vertex 4 -29 9
      vertex 2.32228 -29 7.65552
    endloop
  endfacet
  facet normal 0 -1 0
    outer loop
      vertex 3.77117 -29 7.05537
      vertex 4 -29 9
      vertex 3.06147 -29 7.39104
    endloop
  endfacet
  facet normal 0 -1 -0
    outer loop
      vertex 4 -29 9
      vertex 3.77117 -29 7.05537
      vertex 4.71397 -29 8.81921
    endloop
  endfacet
  facet normal 0 -1 -0
    outer loop
      vertex 4.71397 -29 8.81921
      vertex 3.77117 -29 7.05537
      vertex 5.5557 -29 8.3147
    endloop
  endfacet
  facet normal 0 -1 0
    outer loop
      vertex 4.44456 -29 6.65176
      vertex 5.5557 -29 8.3147
      vertex 3.77117 -29 7.05537
    endloop
  endfacet
  facet normal 0 -1 -0
    outer loop
      vertex 5.5557 -29 8.3147
      vertex 4.44456 -29 6.65176
      vertex 6.34393 -29 7.7301
    endloop
  endfacet
  facet normal 0 -1 0
    outer loop
      vertex 5.07515 -29 6.18408
      vertex 6.34393 -29 7.7301
      vertex 4.44456 -29 6.65176
    endloop
  endfacet
  facet normal 0 -1 -0
    outer loop
      vertex 6.34393 -29 7.7301
      vertex 5.07515 -29 6.18408
      vertex 7.07107 -29 7.07107
    endloop
  endfacet
  facet normal 0 -1 0
    outer loop
      vertex 5.65685 -29 5.65685
      vertex 7.07107 -29 7.07107
      vertex 5.07515 -29 6.18408
    endloop
  endfacet
  facet normal 0 -1 -0
    outer loop
      vertex 7.07107 -29 7.07107
      vertex 5.65685 -29 5.65685
      vertex 7.7301 -29 6.34393
    endloop
  endfacet
  facet normal 0 -1 0
    outer loop
      vertex 6.18408 -29 5.07515
      vertex 7.7301 -29 6.34393
      vertex 5.65685 -29 5.65685
    endloop
  endfacet
  facet normal 0 -1 -0
    outer loop
      vertex 7.7301 -29 6.34393
      vertex 6.18408 -29 5.07515
      vertex 8.3147 -29 5.5557
    endloop
  endfacet
  facet normal 0 -1 0
    outer loop
      vertex 6.65176 -29 4.44456
      vertex 8.3147 -29 5.5557
      vertex 6.18408 -29 5.07515
    endloop
  endfacet
  facet normal 0 -1 -0
    outer loop
      vertex 8.3147 -29 5.5557
      vertex 6.65176 -29 4.44456
      vertex 8.81921 -29 4.71397
    endloop
  endfacet
  facet normal 0 -1 0
    outer loop
      vertex 7.05537 -29 3.77117
      vertex 8.81921 -29 4.71397
      vertex 6.65176 -29 4.44456
    endloop
  endfacet
  facet normal 0 -1 -0
    outer loop
      vertex 8.81921 -29 4.71397
      vertex 7.05537 -29 3.77117
      vertex 9.2388 -29 3.82683
    endloop
  endfacet
  facet normal 0 -1 0
    outer loop
      vertex 7.39104 -29 3.06147
      vertex 9.2388 -29 3.82683
      vertex 7.05537 -29 3.77117
    endloop
  endfacet
  facet normal 0 -1 0
    outer loop
      vertex 7.39104 -29 3.06147
      vertex 9.5694 -29 2.90285
      vertex 9.2388 -29 3.82683
    endloop
  endfacet
  facet normal 0 -1 0
    outer loop
      vertex 7.65552 -29 2.32228
      vertex 9.5694 -29 2.90285
      vertex 7.39104 -29 3.06147
    endloop
  endfacet
  facet normal 0 -1 0
    outer loop
      vertex 7.65552 -29 2.32228
      vertex 9.79555 -29 2
      vertex 9.5694 -29 2.90285
    endloop
  endfacet
  facet normal 0 -1 0
    outer loop
      vertex 7.84628 -29 1.56072
      vertex 9.79555 -29 2
      vertex 7.65552 -29 2.32228
    endloop
  endfacet
  facet normal 0 -1 0
    outer loop
      vertex 7.96148 -29 0.784137
      vertex 9.79555 -29 2
      vertex 7.84628 -29 1.56072
    endloop
  endfacet
  facet normal 0 -1 0
    outer loop
      vertex 8 -29 0
      vertex 9.79555 -29 2
      vertex 7.96148 -29 0.784137
    endloop
  endfacet
  facet normal 0 -1 -0
    outer loop
      vertex 9.79555 -29 2
      vertex 8 -29 0
      vertex 15 -29 0
    endloop
  endfacet
  facet normal 0 -1 0
    outer loop
      vertex 9.79555 -29 2
      vertex 15 -29 0
      vertex 15 -29 2
    endloop
  endfacet
  facet normal -0.941546 0 0.336885
    outer loop
      vertex -9.5694 -29 2.90285
      vertex -9.2388 -23 3.82683
      vertex -9.5694 -23 2.90285
    endloop
  endfacet
  facet normal -0.941546 0 0.336885
    outer loop
      vertex -9.2388 -23 3.82683
      vertex -9.5694 -29 2.90285
      vertex -9.2388 -29 3.82683
    endloop
  endfacet
  facet normal -0.970032 0 0.242978
    outer loop
      vertex -9.79555 -29 2
      vertex -9.5694 -23 2.90285
      vertex -9.79555 -23 2
    endloop
  endfacet
  facet normal -0.970032 0 0.242978
    outer loop
      vertex -9.5694 -23 2.90285
      vertex -9.79555 -29 2
      vertex -9.5694 -29 2.90285
    endloop
  endfacet
  facet normal -0.803203 0 0.595705
    outer loop
      vertex -8.3147 -29 5.5557
      vertex -7.7301 -23 6.34393
      vertex -8.3147 -23 5.5557
    endloop
  endfacet
  facet normal -0.803203 0 0.595705
    outer loop
      vertex -7.7301 -23 6.34393
      vertex -8.3147 -29 5.5557
      vertex -7.7301 -29 6.34393
    endloop
  endfacet
  facet normal -0.740957 0 0.671553
    outer loop
      vertex -7.7301 -29 6.34393
      vertex -7.07107 -23 7.07107
      vertex -7.7301 -23 6.34393
    endloop
  endfacet
  facet normal -0.740957 0 0.671553
    outer loop
      vertex -7.07107 -23 7.07107
      vertex -7.7301 -29 6.34393
      vertex -7.07107 -29 7.07107
    endloop
  endfacet
  facet normal -0.5141 0 0.85773
    outer loop
      vertex -5.5557 -23 8.3147
      vertex -4.71397 -29 8.81921
      vertex -4.71397 -23 8.81921
    endloop
  endfacet
  facet normal -0.5141 0 0.85773
    outer loop
      vertex -4.71397 -29 8.81921
      vertex -5.5557 -23 8.3147
      vertex -5.5557 -29 8.3147
    endloop
  endfacet
  facet normal -0.427552 0 0.903991
    outer loop
      vertex -4.71397 -23 8.81921
      vertex -4 -29 9.15689
      vertex -4 -23 9.15689
    endloop
  endfacet
  facet normal -0.427552 0 0.903991
    outer loop
      vertex -4 -29 9.15689
      vertex -4.71397 -23 8.81921
      vertex -4.71397 -29 8.81921
    endloop
  endfacet
  facet normal 0.970032 -0 0.242978
    outer loop
      vertex 9.5694 -29 2.90285
      vertex 9.79555 -23 2
      vertex 9.5694 -23 2.90285
    endloop
  endfacet
  facet normal 0.970032 0 0.242978
    outer loop
      vertex 9.79555 -23 2
      vertex 9.5694 -29 2.90285
      vertex 9.79555 -29 2
    endloop
  endfacet
  facet normal 0.803203 -0 0.595705
    outer loop
      vertex 7.7301 -29 6.34393
      vertex 8.3147 -23 5.5557
      vertex 7.7301 -23 6.34393
    endloop
  endfacet
  facet normal 0.803203 0 0.595705
    outer loop
      vertex 8.3147 -23 5.5557
      vertex 7.7301 -29 6.34393
      vertex 8.3147 -29 5.5557
    endloop
  endfacet
  facet normal 0.5141 0 0.85773
    outer loop
      vertex 4.71397 -23 8.81921
      vertex 5.5557 -29 8.3147
      vertex 5.5557 -23 8.3147
    endloop
  endfacet
  facet normal 0.5141 0 0.85773
    outer loop
      vertex 5.5557 -29 8.3147
      vertex 4.71397 -23 8.81921
      vertex 4.71397 -29 8.81921
    endloop
  endfacet
  facet normal -0.85773 0 0.5141
    outer loop
      vertex -8.81921 -29 4.71397
      vertex -8.3147 -23 5.5557
      vertex -8.81921 -23 4.71397
    endloop
  endfacet
  facet normal -0.85773 0 0.5141
    outer loop
      vertex -8.3147 -23 5.5557
      vertex -8.81921 -29 4.71397
      vertex -8.3147 -29 5.5557
    endloop
  endfacet
  facet normal -0.595705 0 0.803203
    outer loop
      vertex -6.34393 -23 7.7301
      vertex -5.5557 -29 8.3147
      vertex -5.5557 -23 8.3147
    endloop
  endfacet
  facet normal -0.595705 0 0.803203
    outer loop
      vertex -5.5557 -29 8.3147
      vertex -6.34393 -23 7.7301
      vertex -6.34393 -29 7.7301
    endloop
  endfacet
  facet normal -0.671553 0 0.740957
    outer loop
      vertex -7.07107 -23 7.07107
      vertex -6.34393 -29 7.7301
      vertex -6.34393 -23 7.7301
    endloop
  endfacet
  facet normal -0.671553 0 0.740957
    outer loop
      vertex -6.34393 -29 7.7301
      vertex -7.07107 -23 7.07107
      vertex -7.07107 -29 7.07107
    endloop
  endfacet
  facet normal -0.998796 0 -0.0490649
    outer loop
      vertex 8 -29 0
      vertex 7.96148 -23 0.784137
      vertex 8 -23 0
    endloop
  endfacet
  facet normal -0.998796 -0 -0.0490649
    outer loop
      vertex 7.96148 -23 0.784137
      vertex 8 -29 0
      vertex 7.96148 -29 0.784137
    endloop
  endfacet
  facet normal -0.989176 0 -0.146736
    outer loop
      vertex 7.96148 -29 0.784137
      vertex 7.84628 -23 1.56072
      vertex 7.96148 -23 0.784137
    endloop
  endfacet
  facet normal -0.989176 -0 -0.146736
    outer loop
      vertex 7.84628 -23 1.56072
      vertex 7.96148 -29 0.784137
      vertex 7.84628 -29 1.56072
    endloop
  endfacet
  facet normal 0.998796 0 -0.0490649
    outer loop
      vertex -7.96148 -29 0.784137
      vertex -8 -23 0
      vertex -7.96148 -23 0.784137
    endloop
  endfacet
  facet normal 0.998796 0 -0.0490649
    outer loop
      vertex -8 -23 0
      vertex -7.96148 -29 0.784137
      vertex -8 -29 0
    endloop
  endfacet
  facet normal -0.0490649 0 -0.998796
    outer loop
      vertex 0 -29 8
      vertex 0.784137 -23 7.96148
      vertex 0.784137 -29 7.96148
    endloop
  endfacet
  facet normal -0.0490649 0 -0.998796
    outer loop
      vertex 0.784137 -23 7.96148
      vertex 0 -29 8
      vertex 0 -23 8
    endloop
  endfacet
  facet normal -0.740946 0 -0.671564
    outer loop
      vertex 6.18408 -29 5.07515
      vertex 5.65685 -23 5.65685
      vertex 6.18408 -23 5.07515
    endloop
  endfacet
  facet normal -0.740946 -0 -0.671564
    outer loop
      vertex 5.65685 -23 5.65685
      vertex 6.18408 -29 5.07515
      vertex 5.65685 -29 5.65685
    endloop
  endfacet
  facet normal 0.336883 0 -0.941547
    outer loop
      vertex -3.06147 -29 7.39104
      vertex -2.32228 -23 7.65552
      vertex -2.32228 -29 7.65552
    endloop
  endfacet
  facet normal 0.336883 0 -0.941547
    outer loop
      vertex -2.32228 -23 7.65552
      vertex -3.06147 -29 7.39104
      vertex -3.06147 -23 7.39104
    endloop
  endfacet
  facet normal -0.941547 0 -0.336883
    outer loop
      vertex 7.65552 -29 2.32228
      vertex 7.39104 -23 3.06147
      vertex 7.65552 -23 2.32228
    endloop
  endfacet
  facet normal -0.941547 -0 -0.336883
    outer loop
      vertex 7.39104 -23 3.06147
      vertex 7.65552 -29 2.32228
      vertex 7.39104 -29 3.06147
    endloop
  endfacet
  facet normal -0.427562 0 -0.903986
    outer loop
      vertex 3.06147 -29 7.39104
      vertex 3.77117 -23 7.05537
      vertex 3.77117 -29 7.05537
    endloop
  endfacet
  facet normal -0.427562 0 -0.903986
    outer loop
      vertex 3.77117 -23 7.05537
      vertex 3.06147 -29 7.39104
      vertex 3.06147 -23 7.39104
    endloop
  endfacet
  facet normal -0.595701 0 -0.803206
    outer loop
      vertex 4.44456 -29 6.65176
      vertex 5.07515 -23 6.18408
      vertex 5.07515 -29 6.18408
    endloop
  endfacet
  facet normal -0.595701 0 -0.803206
    outer loop
      vertex 5.07515 -23 6.18408
      vertex 4.44456 -29 6.65176
      vertex 4.44456 -23 6.65176
    endloop
  endfacet
  facet normal 0.903986 0 -0.427562
    outer loop
      vertex -7.05537 -29 3.77117
      vertex -7.39104 -23 3.06147
      vertex -7.05537 -23 3.77117
    endloop
  endfacet
  facet normal 0.903986 0 -0.427562
    outer loop
      vertex -7.39104 -23 3.06147
      vertex -7.05537 -29 3.77117
      vertex -7.39104 -29 3.06147
    endloop
  endfacet
  facet normal 0.740946 0 -0.671564
    outer loop
      vertex -5.65685 -29 5.65685
      vertex -6.18408 -23 5.07515
      vertex -5.65685 -23 5.65685
    endloop
  endfacet
  facet normal 0.740946 0 -0.671564
    outer loop
      vertex -6.18408 -23 5.07515
      vertex -5.65685 -29 5.65685
      vertex -6.18408 -29 5.07515
    endloop
  endfacet
  facet normal 0.146736 0 -0.989176
    outer loop
      vertex -1.56072 -29 7.84628
      vertex -0.784137 -23 7.96148
      vertex -0.784137 -29 7.96148
    endloop
  endfacet
  facet normal 0.146736 0 -0.989176
    outer loop
      vertex -0.784137 -23 7.96148
      vertex -1.56072 -29 7.84628
      vertex -1.56072 -23 7.84628
    endloop
  endfacet
  facet normal -0.857731 0 -0.514099
    outer loop
      vertex 7.05537 -29 3.77117
      vertex 6.65176 -23 4.44456
      vertex 7.05537 -23 3.77117
    endloop
  endfacet
  facet normal -0.857731 -0 -0.514099
    outer loop
      vertex 6.65176 -23 4.44456
      vertex 7.05537 -29 3.77117
      vertex 6.65176 -29 4.44456
    endloop
  endfacet
  facet normal -0.903986 0 -0.427562
    outer loop
      vertex 7.39104 -29 3.06147
      vertex 7.05537 -23 3.77117
      vertex 7.39104 -23 3.06147
    endloop
  endfacet
  facet normal -0.903986 -0 -0.427562
    outer loop
      vertex 7.05537 -23 3.77117
      vertex 7.39104 -29 3.06147
      vertex 7.05537 -29 3.77117
    endloop
  endfacet
  facet normal -0.242979 0 -0.970032
    outer loop
      vertex 1.56072 -29 7.84628
      vertex 2.32228 -23 7.65552
      vertex 2.32228 -29 7.65552
    endloop
  endfacet
  facet normal -0.242979 0 -0.970032
    outer loop
      vertex 2.32228 -23 7.65552
      vertex 1.56072 -29 7.84628
      vertex 1.56072 -23 7.84628
    endloop
  endfacet
  facet normal -0.336883 0 -0.941547
    outer loop
      vertex 2.32228 -29 7.65552
      vertex 3.06147 -23 7.39104
      vertex 3.06147 -29 7.39104
    endloop
  endfacet
  facet normal -0.336883 0 -0.941547
    outer loop
      vertex 3.06147 -23 7.39104
      vertex 2.32228 -29 7.65552
      vertex 2.32228 -23 7.65552
    endloop
  endfacet
  facet normal -0.671564 0 -0.740946
    outer loop
      vertex 5.07515 -29 6.18408
      vertex 5.65685 -23 5.65685
      vertex 5.65685 -29 5.65685
    endloop
  endfacet
  facet normal -0.671564 0 -0.740946
    outer loop
      vertex 5.65685 -23 5.65685
      vertex 5.07515 -29 6.18408
      vertex 5.07515 -23 6.18408
    endloop
  endfacet
  facet normal 0.970032 0 -0.242979
    outer loop
      vertex -7.65552 -29 2.32228
      vertex -7.84628 -23 1.56072
      vertex -7.65552 -23 2.32228
    endloop
  endfacet
  facet normal 0.970032 0 -0.242979
    outer loop
      vertex -7.84628 -23 1.56072
      vertex -7.65552 -29 2.32228
      vertex -7.84628 -29 1.56072
    endloop
  endfacet
  facet normal 0.803206 0 -0.595701
    outer loop
      vertex -6.18408 -29 5.07515
      vertex -6.65176 -23 4.44456
      vertex -6.18408 -23 5.07515
    endloop
  endfacet
  facet normal 0.803206 0 -0.595701
    outer loop
      vertex -6.65176 -23 4.44456
      vertex -6.18408 -29 5.07515
      vertex -6.65176 -29 4.44456
    endloop
  endfacet
  facet normal 0.941547 0 -0.336883
    outer loop
      vertex -7.39104 -29 3.06147
      vertex -7.65552 -23 2.32228
      vertex -7.39104 -23 3.06147
    endloop
  endfacet
  facet normal 0.941547 0 -0.336883
    outer loop
      vertex -7.65552 -23 2.32228
      vertex -7.39104 -29 3.06147
      vertex -7.65552 -29 2.32228
    endloop
  endfacet
  facet normal 0.514099 0 -0.857731
    outer loop
      vertex -4.44456 -29 6.65176
      vertex -3.77117 -23 7.05537
      vertex -3.77117 -29 7.05537
    endloop
  endfacet
  facet normal 0.514099 0 -0.857731
    outer loop
      vertex -3.77117 -23 7.05537
      vertex -4.44456 -29 6.65176
      vertex -4.44456 -23 6.65176
    endloop
  endfacet
  facet normal 0.427562 0 -0.903986
    outer loop
      vertex -3.77117 -29 7.05537
      vertex -3.06147 -23 7.39104
      vertex -3.06147 -29 7.39104
    endloop
  endfacet
  facet normal 0.427562 0 -0.903986
    outer loop
      vertex -3.06147 -23 7.39104
      vertex -3.77117 -29 7.05537
      vertex -3.77117 -23 7.05537
    endloop
  endfacet
  facet normal 0.0490649 0 -0.998796
    outer loop
      vertex -0.784137 -29 7.96148
      vertex 0 -23 8
      vertex 0 -29 8
    endloop
  endfacet
  facet normal 0.0490649 0 -0.998796
    outer loop
      vertex 0 -23 8
      vertex -0.784137 -29 7.96148
      vertex -0.784137 -23 7.96148
    endloop
  endfacet
  facet normal -0.970032 0 -0.242979
    outer loop
      vertex 7.84628 -29 1.56072
      vertex 7.65552 -23 2.32228
      vertex 7.84628 -23 1.56072
    endloop
  endfacet
  facet normal -0.970032 -0 -0.242979
    outer loop
      vertex 7.65552 -23 2.32228
      vertex 7.84628 -29 1.56072
      vertex 7.65552 -29 2.32228
    endloop
  endfacet
  facet normal -0.803206 0 -0.595701
    outer loop
      vertex 6.65176 -29 4.44456
      vertex 6.18408 -23 5.07515
      vertex 6.65176 -23 4.44456
    endloop
  endfacet
  facet normal -0.803206 -0 -0.595701
    outer loop
      vertex 6.18408 -23 5.07515
      vertex 6.65176 -29 4.44456
      vertex 6.18408 -29 5.07515
    endloop
  endfacet
  facet normal -0.146736 0 -0.989176
    outer loop
      vertex 0.784137 -29 7.96148
      vertex 1.56072 -23 7.84628
      vertex 1.56072 -29 7.84628
    endloop
  endfacet
  facet normal -0.146736 0 -0.989176
    outer loop
      vertex 1.56072 -23 7.84628
      vertex 0.784137 -29 7.96148
      vertex 0.784137 -23 7.96148
    endloop
  endfacet
  facet normal -0.514099 0 -0.857731
    outer loop
      vertex 3.77117 -29 7.05537
      vertex 4.44456 -23 6.65176
      vertex 4.44456 -29 6.65176
    endloop
  endfacet
  facet normal -0.514099 0 -0.857731
    outer loop
      vertex 4.44456 -23 6.65176
      vertex 3.77117 -29 7.05537
      vertex 3.77117 -23 7.05537
    endloop
  endfacet
  facet normal 0.857731 0 -0.514099
    outer loop
      vertex -6.65176 -29 4.44456
      vertex -7.05537 -23 3.77117
      vertex -6.65176 -23 4.44456
    endloop
  endfacet
  facet normal 0.857731 0 -0.514099
    outer loop
      vertex -7.05537 -23 3.77117
      vertex -6.65176 -29 4.44456
      vertex -7.05537 -29 3.77117
    endloop
  endfacet
  facet normal 0.989176 0 -0.146736
    outer loop
      vertex -7.84628 -29 1.56072
      vertex -7.96148 -23 0.784137
      vertex -7.84628 -23 1.56072
    endloop
  endfacet
  facet normal 0.989176 0 -0.146736
    outer loop
      vertex -7.96148 -23 0.784137
      vertex -7.84628 -29 1.56072
      vertex -7.96148 -29 0.784137
    endloop
  endfacet
  facet normal 0.595701 0 -0.803206
    outer loop
      vertex -5.07515 -29 6.18408
      vertex -4.44456 -23 6.65176
      vertex -4.44456 -29 6.65176
    endloop
  endfacet
  facet normal 0.595701 0 -0.803206
    outer loop
      vertex -4.44456 -23 6.65176
      vertex -5.07515 -29 6.18408
      vertex -5.07515 -23 6.18408
    endloop
  endfacet
  facet normal 0.671564 0 -0.740946
    outer loop
      vertex -5.65685 -29 5.65685
      vertex -5.07515 -23 6.18408
      vertex -5.07515 -29 6.18408
    endloop
  endfacet
  facet normal 0.671564 0 -0.740946
    outer loop
      vertex -5.07515 -23 6.18408
      vertex -5.65685 -29 5.65685
      vertex -5.65685 -23 5.65685
    endloop
  endfacet
  facet normal 0.242979 0 -0.970032
    outer loop
      vertex -2.32228 -29 7.65552
      vertex -1.56072 -23 7.84628
      vertex -1.56072 -29 7.84628
    endloop
  endfacet
  facet normal 0.242979 0 -0.970032
    outer loop
      vertex -1.56072 -23 7.84628
      vertex -2.32228 -29 7.65552
      vertex -2.32228 -23 7.65552
    endloop
  endfacet
  facet normal 0 0 -1
    outer loop
      vertex -8 -29 0
      vertex -10 -28 0
      vertex -8 -23 0
    endloop
  endfacet
  facet normal 0 0 -1
    outer loop
      vertex -8 -29 0
      vertex -13 -28 0
      vertex -10 -28 0
    endloop
  endfacet
  facet normal -0 0 -1
    outer loop
      vertex -13 -28 0
      vertex -15 -29 0
      vertex -13 -24 0
    endloop
  endfacet
  facet normal 0 0 -1
    outer loop
      vertex -15 -29 0
      vertex -13 -28 0
      vertex -8 -29 0
    endloop
  endfacet
  facet normal 0 0 -1
    outer loop
      vertex -10 -24 0
      vertex -8 -23 0
      vertex -10 -28 0
    endloop
  endfacet
  facet normal 0 0 -1
    outer loop
      vertex -13 -24 0
      vertex -8 -23 0
      vertex -10 -24 0
    endloop
  endfacet
  facet normal 0 0 -1
    outer loop
      vertex -13 -24 0
      vertex -15 -23 0
      vertex -8 -23 0
    endloop
  endfacet
  facet normal 0 0 -1
    outer loop
      vertex -15 -23 0
      vertex -13 -24 0
      vertex -15 -29 0
    endloop
  endfacet
  facet normal 0 0 -1
    outer loop
      vertex 15 -29 0
      vertex 13 -28 0
      vertex 15 -23 0
    endloop
  endfacet
  facet normal 0 0 -1
    outer loop
      vertex 15 -29 0
      vertex 10 -28 0
      vertex 13 -28 0
    endloop
  endfacet
  facet normal -0 0 -1
    outer loop
      vertex 10 -28 0
      vertex 8 -29 0
      vertex 10 -24 0
    endloop
  endfacet
  facet normal 0 0 -1
    outer loop
      vertex 8 -29 0
      vertex 10 -28 0
      vertex 15 -29 0
    endloop
  endfacet
  facet normal 0 0 -1
    outer loop
      vertex 13 -24 0
      vertex 15 -23 0
      vertex 13 -28 0
    endloop
  endfacet
  facet normal 0 0 -1
    outer loop
      vertex 10 -24 0
      vertex 15 -23 0
      vertex 13 -24 0
    endloop
  endfacet
  facet normal 0 0 -1
    outer loop
      vertex 10 -24 0
      vertex 8 -23 0
      vertex 15 -23 0
    endloop
  endfacet
  facet normal 0 0 -1
    outer loop
      vertex 8 -23 0
      vertex 10 -24 0
      vertex 8 -29 0
    endloop
  endfacet
  facet normal -1 0 0
    outer loop
      vertex -15 -29 0
      vertex -15 -23 2
      vertex -15 -23 0
    endloop
  endfacet
  facet normal -1 -0 0
    outer loop
      vertex -15 -23 2
      vertex -15 -29 0
      vertex -15 -29 2
    endloop
  endfacet
  facet normal 0 0 1
    outer loop
      vertex -9.79555 -23 2
      vertex -10 -24 2
      vertex -9.79555 -29 2
    endloop
  endfacet
  facet normal 0 0 1
    outer loop
      vertex -9.79555 -23 2
      vertex -13 -24 2
      vertex -10 -24 2
    endloop
  endfacet
  facet normal 0 0 1
    outer loop
      vertex -13 -24 2
      vertex -15 -23 2
      vertex -13 -28 2
    endloop
  endfacet
  facet normal -0 0 1
    outer loop
      vertex -15 -23 2
      vertex -13 -24 2
      vertex -9.79555 -23 2
    endloop
  endfacet
  facet normal -0 0 1
    outer loop
      vertex -10 -28 2
      vertex -9.79555 -29 2
      vertex -10 -24 2
    endloop
  endfacet
  facet normal -0 0 1
    outer loop
      vertex -13 -28 2
      vertex -9.79555 -29 2
      vertex -10 -28 2
    endloop
  endfacet
  facet normal 0 0 1
    outer loop
      vertex -13 -28 2
      vertex -15 -29 2
      vertex -9.79555 -29 2
    endloop
  endfacet
  facet normal 0 0 1
    outer loop
      vertex -15 -29 2
      vertex -13 -28 2
      vertex -15 -23 2
    endloop
  endfacet
  facet normal 1 -0 0
    outer loop
      vertex -13 -28 2
      vertex -13 -24 0
      vertex -13 -24 2
    endloop
  endfacet
  facet normal 1 0 0
    outer loop
      vertex -13 -24 0
      vertex -13 -28 2
      vertex -13 -28 0
    endloop
  endfacet
  facet normal -1 0 0
    outer loop
      vertex -10 -28 0
      vertex -10 -24 2
      vertex -10 -24 0
    endloop
  endfacet
  facet normal -1 -0 0
    outer loop
      vertex -10 -24 2
      vertex -10 -28 0
      vertex -10 -28 2
    endloop
  endfacet
  facet normal 0 -1 0
    outer loop
      vertex -13 -24 0
      vertex -10 -24 2
      vertex -13 -24 2
    endloop
  endfacet
  facet normal 0 -1 -0
    outer loop
      vertex -10 -24 2
      vertex -13 -24 0
      vertex -10 -24 0
    endloop
  endfacet
  facet normal 0 1 -0
    outer loop
      vertex -10 -28 0
      vertex -13 -28 2
      vertex -10 -28 2
    endloop
  endfacet
  facet normal 0 1 0
    outer loop
      vertex -13 -28 2
      vertex -10 -28 0
      vertex -13 -28 0
    endloop
  endfacet
  facet normal 0 0 1
    outer loop
      vertex 15 -23 2
      vertex 13 -24 2
      vertex 15 -29 2
    endloop
  endfacet
  facet normal -0 0 1
    outer loop
      vertex 9.79555 -23 2
      vertex 13 -24 2
      vertex 15 -23 2
    endloop
  endfacet
  facet normal 0 0 1
    outer loop
      vertex 10 -24 2
      vertex 9.79555 -23 2
      vertex 10 -28 2
    endloop
  endfacet
  facet normal 0 0 1
    outer loop
      vertex 13 -24 2
      vertex 9.79555 -23 2
      vertex 10 -24 2
    endloop
  endfacet
  facet normal -0 0 1
    outer loop
      vertex 13 -28 2
      vertex 15 -29 2
      vertex 13 -24 2
    endloop
  endfacet
  facet normal 0 0 1
    outer loop
      vertex 9.79555 -29 2
      vertex 13 -28 2
      vertex 10 -28 2
    endloop
  endfacet
  facet normal 0 0 1
    outer loop
      vertex 13 -28 2
      vertex 9.79555 -29 2
      vertex 15 -29 2
    endloop
  endfacet
  facet normal 0 0 1
    outer loop
      vertex 9.79555 -29 2
      vertex 10 -28 2
      vertex 9.79555 -23 2
    endloop
  endfacet
  facet normal 1 -0 0
    outer loop
      vertex 15 -29 2
      vertex 15 -23 0
      vertex 15 -23 2
    endloop
  endfacet
  facet normal 1 0 0
    outer loop
      vertex 15 -23 0
      vertex 15 -29 2
      vertex 15 -29 0
    endloop
  endfacet
  facet normal 1 -0 0
    outer loop
      vertex 10 -28 2
      vertex 10 -24 0
      vertex 10 -24 2
    endloop
  endfacet
  facet normal 1 0 0
    outer loop
      vertex 10 -24 0
      vertex 10 -28 2
      vertex 10 -28 0
    endloop
  endfacet
  facet normal -1 0 0
    outer loop
      vertex 13 -28 0
      vertex 13 -24 2
      vertex 13 -24 0
    endloop
  endfacet
  facet normal -1 -0 0
    outer loop
      vertex 13 -24 2
      vertex 13 -28 0
      vertex 13 -28 2
    endloop
  endfacet
  facet normal 0 -1 0
    outer loop
      vertex 10 -24 0
      vertex 13 -24 2
      vertex 10 -24 2
    endloop
  endfacet
  facet normal 0 -1 -0
    outer loop
      vertex 13 -24 2
      vertex 10 -24 0
      vertex 13 -24 0
    endloop
  endfacet
  facet normal 0 1 -0
    outer loop
      vertex 13 -28 0
      vertex 10 -28 2
      vertex 13 -28 2
    endloop
  endfacet
  facet normal 0 1 0
    outer loop
      vertex 10 -28 2
      vertex 13 -28 0
      vertex 10 -28 0
    endloop
  endfacet
  facet normal -1 0 0
    outer loop
      vertex -4 -29 9
      vertex -4 -30 9
      vertex -4 -29 9.15689
    endloop
  endfacet
  facet normal -1 0 0
    outer loop
      vertex -4 -23 9.15689
      vertex -4 -11 9.15689
      vertex -4 -11 9
    endloop
  endfacet
  facet normal -1 0 0
    outer loop
      vertex -4 -23 9.15689
      vertex -4 -11 9
      vertex -4 -23 9
    endloop
  endfacet
  facet normal -1 0 0
    outer loop
      vertex -4 -11 9.15689
      vertex -4 -23 9.15689
      vertex -4 -11 11
    endloop
  endfacet
  facet normal -1 0 0
    outer loop
      vertex -4 -23 9.15689
      vertex -4 -25 11
      vertex -4 -11 11
    endloop
  endfacet
  facet normal -1 0 0
    outer loop
      vertex -4 -29 9.15689
      vertex -4 -25 11
      vertex -4 -23 9.15689
    endloop
  endfacet
  facet normal -1 0 0
    outer loop
      vertex -4 -30 11
      vertex -4 -29 9.15689
      vertex -4 -30 9
    endloop
  endfacet
  facet normal -1 0 0
    outer loop
      vertex -4 -29 9.15689
      vertex -4 -30 11
      vertex -4 -25 11
    endloop
  endfacet
  facet normal -1 0 0
    outer loop
      vertex -4 0 9
      vertex -4 1 -1
      vertex -4 0 -1
    endloop
  endfacet
  facet normal -1 0 0
    outer loop
      vertex -4 1 -1
      vertex -4 0 9
      vertex -4 1 11
    endloop
  endfacet
  facet normal -1 0 0
    outer loop
      vertex -4 -5 9.15689
      vertex -4 0 9
      vertex -4 -5 9
    endloop
  endfacet
  facet normal -1 0 0
    outer loop
      vertex -4 0 9
      vertex -4 -5 9.15689
      vertex -4 1 11
    endloop
  endfacet
  facet normal -1 0 0
    outer loop
      vertex -4 -11 11
      vertex -4 -5 9.15689
      vertex -4 -11 9.15689
    endloop
  endfacet
  facet normal -1 0 0
    outer loop
      vertex -4 -5 9.15689
      vertex -4 -11 11
      vertex -4 1 11
    endloop
  endfacet
  facet normal -0 0 1
    outer loop
      vertex -4 -25 11
      vertex 4 -30 11
      vertex 4 -25 11
    endloop
  endfacet
  facet normal 0 0 1
    outer loop
      vertex 4 -30 11
      vertex -4 -25 11
      vertex -4 -30 11
    endloop
  endfacet
  facet normal -0 0 1
    outer loop
      vertex -4 1 11
      vertex 4 -11 11
      vertex 4 1 11
    endloop
  endfacet
  facet normal 0 0 1
    outer loop
      vertex 4 -11 11
      vertex -4 1 11
      vertex -4 -11 11
    endloop
  endfacet
  facet normal 0 0 -1
    outer loop
      vertex 4 -25 11
      vertex 18.4681 -11 11
      vertex 18.4681 -25 11
    endloop
  endfacet
  facet normal -0 0 -1
    outer loop
      vertex 18.4681 -11 11
      vertex 4 -25 11
      vertex 4 -11 11
    endloop
  endfacet
  facet normal 0 0 -1
    outer loop
      vertex -18.4681 -25 11
      vertex -4 -11 11
      vertex -4 -25 11
    endloop
  endfacet
  facet normal -0 0 -1
    outer loop
      vertex -4 -11 11
      vertex -18.4681 -25 11
      vertex -18.4681 -11 11
    endloop
  endfacet
  facet normal 1 0 0
    outer loop
      vertex 4 1 11
      vertex 4 0 9
      vertex 4 1 -1
    endloop
  endfacet
  facet normal 1 0 0
    outer loop
      vertex 4 1 11
      vertex 4 -5 9.15689
      vertex 4 0 9
    endloop
  endfacet
  facet normal 1 -0 0
    outer loop
      vertex 4 -11 11
      vertex 4 -5 9.15689
      vertex 4 1 11
    endloop
  endfacet
  facet normal 1 0 0
    outer loop
      vertex 4 -11 11
      vertex 4 -11 9.15689
      vertex 4 -5 9.15689
    endloop
  endfacet
  facet normal 1 0 0
    outer loop
      vertex 4 -23 9.15689
      vertex 4 -11 9.15689
      vertex 4 -11 11
    endloop
  endfacet
  facet normal 1 0 0
    outer loop
      vertex 4 -11 9.15689
      vertex 4 -23 9.15689
      vertex 4 -11 9
    endloop
  endfacet
  facet normal 1 -0 0
    outer loop
      vertex 4 -25 11
      vertex 4 -23 9.15689
      vertex 4 -11 11
    endloop
  endfacet
  facet normal 1 0 0
    outer loop
      vertex 4 -25 11
      vertex 4 -29 9.15689
      vertex 4 -23 9.15689
    endloop
  endfacet
  facet normal 1 -0 0
    outer loop
      vertex 4 -30 11
      vertex 4 -29 9.15689
      vertex 4 -25 11
    endloop
  endfacet
  facet normal 1 0 0
    outer loop
      vertex 4 -30 9
      vertex 4 -29 9.15689
      vertex 4 -30 11
    endloop
  endfacet
  facet normal 1 0 0
    outer loop
      vertex 4 -29 9.15689
      vertex 4 -30 9
      vertex 4 -29 9
    endloop
  endfacet
  facet normal 1 0 0
    outer loop
      vertex 4 1 -1
      vertex 4 0 9
      vertex 4 0 -1
    endloop
  endfacet
  facet normal 1 0 0
    outer loop
      vertex 4 0 9
      vertex 4 -5 9.15689
      vertex 4 -5 9
    endloop
  endfacet
  facet normal 1 0 0
    outer loop
      vertex 4 -11 9
      vertex 4 -23 9.15689
      vertex 4 -23 9
    endloop
  endfacet
  facet normal 0 1 -0
    outer loop
      vertex 4 1 -1
      vertex -4 1 11
      vertex 4 1 11
    endloop
  endfacet
  facet normal 0 1 0
    outer loop
      vertex -4 1 11
      vertex 4 1 -1
      vertex -4 1 -1
    endloop
  endfacet
  facet normal 0 0 -1
    outer loop
      vertex -4 -30 9
      vertex 4 -29 9
      vertex 4 -30 9
    endloop
  endfacet
  facet normal -0 0 -1
    outer loop
      vertex 4 -29 9
      vertex -4 -30 9
      vertex -4 -29 9
    endloop
  endfacet
  facet normal 0 0 -1
    outer loop
      vertex -4 -5 9
      vertex 4 0 9
      vertex 4 -5 9
    endloop
  endfacet
  facet normal -0 0 -1
    outer loop
      vertex 4 0 9
      vertex -4 -5 9
      vertex -4 0 9
    endloop
  endfacet
  facet normal 0 0 -1
    outer loop
      vertex -4 -23 9
      vertex 4 -11 9
      vertex 4 -23 9
    endloop
  endfacet
  facet normal -0 0 -1
    outer loop
      vertex 4 -11 9
      vertex -4 -23 9
      vertex -4 -11 9
    endloop
  endfacet
  facet normal 0 -1 0
    outer loop
      vertex -4 -30 9
      vertex 4 -30 11
      vertex -4 -30 11
    endloop
  endfacet
  facet normal 0 -1 -0
    outer loop
      vertex 4 -30 11
      vertex -4 -30 9
      vertex 4 -30 9
    endloop
  endfacet
  facet normal 0 0 -1
    outer loop
      vertex -4 0 -1
      vertex 4 1 -1
      vertex 4 0 -1
    endloop
  endfacet
  facet normal -0 0 -1
    outer loop
      vertex 4 1 -1
      vertex -4 0 -1
      vertex -4 1 -1
    endloop
  endfacet
  facet normal 0 -1 0
    outer loop
      vertex -4 0 -1
      vertex 4 0 9
      vertex -4 0 9
    endloop
  endfacet
  facet normal 0 -1 -0
    outer loop
      vertex 4 0 9
      vertex -4 0 -1
      vertex 4 0 -1
    endloop
  endfacet
  facet normal 0 1 0
    outer loop
      vertex 4 -11 11
      vertex 7 -11 21
      vertex 18.4681 -11 12.9699
    endloop
  endfacet
  facet normal 0 1 0
    outer loop
      vertex 7 -11 21
      vertex 4 -11 11
      vertex -7 -11 21
    endloop
  endfacet
  facet normal 0 1 0
    outer loop
      vertex 4 -11 11
      vertex 18.4681 -11 12.9699
      vertex 18.4681 -11 11
    endloop
  endfacet
  facet normal 0 1 -0
    outer loop
      vertex -4 -11 11
      vertex -7 -11 21
      vertex 4 -11 11
    endloop
  endfacet
  facet normal 0 1 0
    outer loop
      vertex -7 -11 21
      vertex -4 -11 11
      vertex -18.4681 -11 12.9699
    endloop
  endfacet
  facet normal 0 1 0
    outer loop
      vertex -18.4681 -11 12.9699
      vertex -4 -11 11
      vertex -18.4681 -11 11
    endloop
  endfacet
  facet normal 1 -0 0
    outer loop
      vertex 18.4681 -25 12.9699
      vertex 18.4681 -11 11
      vertex 18.4681 -11 12.9699
    endloop
  endfacet
  facet normal 1 0 0
    outer loop
      vertex 18.4681 -11 11
      vertex 18.4681 -25 12.9699
      vertex 18.4681 -25 11
    endloop
  endfacet
  facet normal 0 -1 0
    outer loop
      vertex -4 -25 11
      vertex -7 -25 21
      vertex -18.4681 -25 12.9699
    endloop
  endfacet
  facet normal 0 -1 0
    outer loop
      vertex -7 -25 21
      vertex -4 -25 11
      vertex 7 -25 21
    endloop
  endfacet
  facet normal 0 -1 0
    outer loop
      vertex -4 -25 11
      vertex -18.4681 -25 12.9699
      vertex -18.4681 -25 11
    endloop
  endfacet
  facet normal 0 -1 0
    outer loop
      vertex 4 -25 11
      vertex 7 -25 21
      vertex -4 -25 11
    endloop
  endfacet
  facet normal 0 -1 -0
    outer loop
      vertex 7 -25 21
      vertex 4 -25 11
      vertex 18.4681 -25 12.9699
    endloop
  endfacet
  facet normal 0 -1 -0
    outer loop
      vertex 18.4681 -25 12.9699
      vertex 4 -25 11
      vertex 18.4681 -25 11
    endloop
  endfacet
  facet normal -1 0 0
    outer loop
      vertex -18.4681 -25 11
      vertex -18.4681 -11 12.9699
      vertex -18.4681 -11 11
    endloop
  endfacet
  facet normal -1 -0 0
    outer loop
      vertex -18.4681 -11 12.9699
      vertex -18.4681 -25 11
      vertex -18.4681 -25 12.9699
    endloop
  endfacet
  facet normal 0.573579 0 0.81915
    outer loop
      vertex 7 -11 21
      vertex 18.4681 -25 12.9699
      vertex 18.4681 -11 12.9699
    endloop
  endfacet
  facet normal 0.573579 0 0.81915
    outer loop
      vertex 18.4681 -25 12.9699
      vertex 7 -11 21
      vertex 7 -25 21
    endloop
  endfacet
  facet normal -0.573579 0 0.81915
    outer loop
      vertex -18.4681 -11 12.9699
      vertex -7 -25 21
      vertex -7 -11 21
    endloop
  endfacet
  facet normal -0.573579 0 0.81915
    outer loop
      vertex -7 -25 21
      vertex -18.4681 -11 12.9699
      vertex -18.4681 -25 12.9699
    endloop
  endfacet
  facet normal -0 0 1
    outer loop
      vertex -7 -11 21
      vertex 7 -25 21
      vertex 7 -11 21
    endloop
  endfacet
  facet normal 0 0 1
    outer loop
      vertex 7 -25 21
      vertex -7 -11 21
      vertex -7 -25 21
    endloop
  endfacet
endsolid OpenSCAD_Model
