<svg xmlns="http://www.w3.org/2000/svg" width="210mm" height="297mm" viewBox="0 0 210 297"><rect width="210" height="297" fill="white" /><text x="10" y="10" font-size="3">DICT_4X4_100 | print 100%, measure black edges after printing</text><g transform="translate(10 20)" data-marker-id="21" data-black-edge-mm="10" data-quiet-zone-mm="2"><rect x="2.00000000" y="2.00000000" width="1.66666667" height="1.66666667" fill="black" /><rect x="3.66666667" y="2.00000000" width="1.66666667" height="1.66666667" fill="black" /><rect x="5.33333333" y="2.00000000" width="1.66666667" height="1.66666667" fill="black" /><rect x="7.00000000" y="2.00000000" width="1.66666667" height="1.66666667" fill="black" /><rect x="8.66666667" y="2.00000000" width="1.66666667" height="1.66666667" fill="black" /><rect x="10.33333333" y="2.00000000" width="1.66666667" height="1.66666667" fill="black" /><rect x="2.00000000" y="3.66666667" width="1.66666667" height="1.66666667" fill="black" /><rect x="5.33333333" y="3.66666667" width="1.66666667" height="1.66666667" fill="black" /><rect x="10.33333333" y="3.66666667" width="1.66666667" height="1.66666667" fill="black" /><rect x="2.00000000" y="5.33333333" width="1.66666667" height="1.66666667" fill="black" /><rect x="3.66666667" y="5.33333333" width="1.66666667" height="1.66666667" fill="black" /><rect x="5.33333333" y="5.33333333" width="1.66666667" height="1.66666667" fill="black" /><rect x="7.00000000" y="5.33333333" width="1.66666667" height="1.66666667" fill="black" /><rect x="8.66666667" y="5.33333333" width="1.66666667" height="1.66666667" fill="black" /><rect x="10.33333333" y="5.33333333" width="1.66666667" height="1.66666667" fill="black" /><rect x="2.00000000" y="7.00000000" width="1.66666667" height="1.66666667" fill="black" /><rect x="3.66666667" y="7.00000000" width="1.66666667" height="1.66666667" fill="black" /><rect x="5.33333333" y="7.00000000" width="1.66666667" height="1.66666667" fill="black" /><rect x="8.66666667" y="7.00000000" width="1.66666667" height="1.66666667" fill="black" /><rect x="10.33333333" y="7.00000000" width="1.66666667" height="1.66666667" fill="black" /><rect x="2.00000000" y="8.66666667" width="1.66666667" height="1.66666667" fill="black" /><rect x="5.33333333" y="8.66666667" width="1.66666667" height="1.66666667" fill="black" /><rect x="10.33333333" y="8.66666667" width="1.66666667" height="1.66666667" fill="black" /><rect x="2.00000000" y="10.33333333" width="1.66666667" height="1.66666667" fill="black" /><rect x="3.66666667" y="10.33333333" width="1.66666667" height="1.66666667" fill="black" /><rect x="5.33333333" y="10.33333333" width="1.66666667" height="1.66666667" fill="black" /><rect x="7.00000000" y="10.33333333" width="1.66666667" height="1.66666667" fill="black" /><rect x="8.66666667" y="10.33333333" width="1.66666667" height="1.66666667" fill="black" /><rect x="10.33333333" y="10.33333333" width="1.66666667" height="1.66666667" fill="black" /><text x="0" y="18" font-size="2.5">ID 21 | top = +Y</text></g><g transform="translate(34 20)" data-marker-id="22" data-black-edge-mm="10" data-quiet-zone-mm="2"><rect x="2.00000000" y="2.00000000" width="1.66666667" height="1.66666667" fill="black" /><rect x="3.66666667" y="2.00000000" width="1.66666667" height="1.66666667" fill="black" /><rect x="5.33333333" y="2.00000000" width="1.66666667" height="1.66666667" fill="black" /><rect x="7.00000000" y="2.00000000" width="1.66666667" height="1.66666667" fill="black" /><rect x="8.66666667" y="2.00000000" width="1.66666667" height="1.66666667" fill="black" /><rect x="10.33333333" y="2.00000000" width="1.66666667" height="1.66666667" fill="black" /><rect x="2.00000000" y="3.66666667" width="1.66666667" height="1.66666667" fill="black" /><rect x="7.00000000" y="3.66666667" width="1.66666667" height="1.66666667" fill="black" /><rect x="8.66666667" y="3.66666667" width="1.66666667" height="1.66666667" fill="black" /><rect x="10.33333333" y="3.66666667" width="1.66666667" height="1.66666667" fill="black" /><rect x="2.00000000" y="5.33333333" width="1.66666667" height="1.66666667" fill="black" /><rect x="7.00000000" y="5.33333333" width="1.66666667" height="1.66666667" fill="black" /><rect x="8.66666667" y="5.33333333" width="1.66666667" height="1.66666667" fill="black" /><rect x="10.33333333" y="5.33333333" width="1.66666667" height="1.66666667" fill="black" /><rect x="2.00000000" y="7.00000000" width="1.66666667" height="1.66666667" fill="black" /><rect x="7.00000000" y="7.00000000" width="1.66666667" height="1.66666667" fill="black" /><rect x="10.33333333" y="7.00000000" width="1.66666667" height="1.66666667" fill="black" /><rect x="2.00000000" y="8.66666667" width="1.66666667" height="1.66666667" fill="black" /><rect x="3.66666667" y="8.66666667" width="1.66666667" height="1.66666667" fill="black" /><rect x="7.00000000" y="8.66666667" width="1.66666667" height="1.66666667" fill="black" /><rect x="10.33333333" y="8.66666667" width="1.66666667" height="1.66666667" fill="black" /><rect x="2.00000000" y="10.33333333" width="1.66666667" height="1.66666667" fill="black" /><rect x="3.66666667" y="10.33333333" width="1.66666667" height="1.66666667" fill="black" /><rect x="5.33333333" y="10.33333333" width="1.66666667" height="1.66666667" fill="black" /><rect x="7.00000000" y="10.33333333" width="1.66666667" height="1.66666667" fill="black" /><rect x="8.66666667" y="10.33333333" width="1.66666667" height="1.66666667" fill="black" /><rect x="10.33333333" y="10.33333333" width="1.66666667" height="1.66666667" fill="black" /><text x="0" y="18" font-size="2.5">ID 22 | top = +Y</text></g><g transform="translate(58 20)" data-marker-id="23" data-black-edge-mm="10" data-quiet-zone-mm="2"><rect x="2.00000000" y="2.00000000" width="1.66666667" height="1.66666667" fill="black" /><rect x="3.66666667" y="2.00000000" width="1.66666667" height="1.66666667" fill="black" /><rect x="5.33333333" y="2.00000000" width="1.66666667" height="1.66666667" fill="black" /><rect x="7.00000000" y="2.00000000" width="1.66666667" height="1.66666667" fill="black" /><rect x="8.66666667" y="2.00000000" width="1.66666667" height="1.66666667" fill="black" /><rect x="10.33333333" y="2.00000000" width="1.66666667" height="1.66666667" fill="black" /><rect x="2.00000000" y="3.66666667" width="1.66666667" height="1.66666667" fill="black" /><rect x="7.00000000" y="3.66666667" width="1.66666667" height="1.66666667" fill="black" /><rect x="10.33333333" y="3.66666667" width="1.66666667" height="1.66666667" fill="black" /><rect x="2.00000000" y="5.33333333" width="1.66666667" height="1.66666667" fill="black" /><rect x="7.00000000" y="5.33333333" width="1.66666667" height="1.66666667" fill="black" /><rect x="10.33333333" y="5.33333333" width="1.66666667" height="1.66666667" fill="black" /><rect x="2.00000000" y="7.00000000" width="1.66666667" height="1.66666667" fill="black" /><rect x="5.33333333" y="7.00000000" width="1.66666667" height="1.66666667" fill="black" /><rect x="7.00000000" y="7.00000000" width="1.66666667" height="1.66666667" fill="black" /><rect x="8.66666667" y="7.00000000" width="1.66666667" height="1.66666667" fill="black" /><rect x="10.33333333" y="7.00000000" width="1.66666667" height="1.66666667" fill="black" /><rect x="2.00000000" y="8.66666667" width="1.66666667" height="1.66666667" fill="black" /><rect x="3.66666667" y="8.66666667" width="1.66666667" height="1.66666667" fill="black" /><rect x="5.33333333" y="8.66666667" width="1.66666667" height="1.66666667" fill="black" /><rect x="8.66666667" y="8.66666667" width="1.66666667" height="1.66666667" fill="black" /><rect x="10.33333333" y="8.66666667" width="1.66666667" height="1.66666667" fill="black" /><rect x="2.00000000" y="10.33333333" width="1.66666667" height="1.66666667" fill="black" /><rect x="3.66666667" y="10.33333333" width="1.66666667" height="1.66666667" fill="black" /><rect x="5.33333333" y="10.33333333" width="1.66666667" height="1.66666667" fill="black" /><rect x="7.00000000" y="10.33333333" width="1.66666667" height="1.66666667" fill="black" /><rect x="8.66666667" y="10.33333333" width="1.66666667" height="1.66666667" fill="black" /><rect x="10.33333333" y="10.33333333" width="1.66666667" height="1.66666667" fill="black" /><text x="0" y="18" font-size="2.5">ID 23 | top = +Y</text></g><g transform="translate(82 20)" data-marker-id="31" data-black-edge-mm="10" data-quiet-zone-mm="2"><rect x="2.00000000" y="2.00000000" width="1.66666667" height="1.66666667" fill="black" /><rect x="3.66666667" y="2.00000000" width="1.66666667" height="1.66666667" fill="black" /><rect x="5.33333333" y="2.00000000" width="1.66666667" height="1.66666667" fill="black" /><rect x="7.00000000" y="2.00000000" width="1.66666667" height="1.66666667" fill="black" /><rect x="8.66666667" y="2.00000000" width="1.66666667" height="1.66666667" fill="black" /><rect x="10.33333333" y="2.00000000" width="1.66666667" height="1.66666667" fill="black" /><rect x="2.00000000" y="3.66666667" width="1.66666667" height="1.66666667" fill="black" /><rect x="3.66666667" y="3.66666667" width="1.66666667" height="1.66666667" fill="black" /><rect x="7.00000000" y="3.66666667" width="1.66666667" height="1.66666667" fill="black" /><rect x="10.33333333" y="3.66666667" width="1.66666667" height="1.66666667" fill="black" /><rect x="2.00000000" y="5.33333333" width="1.66666667" height="1.66666667" fill="black" /><rect x="3.66666667" y="5.33333333" width="1.66666667" height="1.66666667" fill="black" /><rect x="10.33333333" y="5.33333333" width="1.66666667" height="1.66666667" fill="black" /><rect x="2.00000000" y="7.00000000" width="1.66666667" height="1.66666667" fill="black" /><rect x="5.33333333" y="7.00000000" width="1.66666667" height="1.66666667" fill="black" /><rect x="10.33333333" y="7.00000000" width="1.66666667" height="1.66666667" fill="black" /><rect x="2.00000000" y="8.66666667" width="1.66666667" height="1.66666667" fill="black" /><rect x="3.66666667" y="8.66666667" width="1.66666667" height="1.66666667" fill="black" /><rect x="5.33333333" y="8.66666667" width="1.66666667" height="1.66666667" fill="black" /><rect x="8.66666667" y="8.66666667" width="1.66666667" height="1.66666667" fill="black" /><rect x="10.33333333" y="8.66666667" width="1.66666667" height="1.66666667" fill="black" /><rect x="2.00000000" y="10.33333333" width="1.66666667" height="1.66666667" fill="black" /><rect x="3.66666667" y="10.33333333" width="1.66666667" height="1.66666667" fill="black" /><rect x="5.33333333" y="10.33333333" width="1.66666667" height="1.66666667" fill="black" /><rect x="7.00000000" y="10.33333333" width="1.66666667" height="1.66666667" fill="black" /><rect x="8.66666667" y="10.33333333" width="1.66666667" height="1.66666667" fill="black" /><rect x="10.33333333" y="10.33333333" width="1.66666667" height="1.66666667" fill="black" /><text x="0" y="18" font-size="2.5">ID 31 | top = +Y</text></g><g transform="translate(106 20)" data-marker-id="32" data-black-edge-mm="10" data-quiet-zone-mm="2"><rect x="2.00000000" y="2.00000000" width="1.66666667" height="1.66666667" fill="black" /><rect x="3.66666667" y="2.00000000" width="1.66666667" height="1.66666667" fill="black" /><rect x="5.33333333" y="2.00000000" width="1.66666667" height="1.66666667" fill="black" /><rect x="7.00000000" y="2.00000000" width="1.66666667" height="1.66666667" fill="black" /><rect x="8.66666667" y="2.00000000" width="1.66666667" height="1.66666667" fill="black" /><rect x="10.33333333" y="2.00000000" width="1.66666667" height="1.66666667" fill="black" /><rect x="2.00000000" y="3.66666667" width="1.66666667" height="1.66666667" fill="black" /><rect x="5.33333333" y="3.66666667" width="1.66666667" height="1.66666667" fill="black" /><rect x="7.00000000" y="3.66666667" width="1.66666667" height="1.66666667" fill="black" /><rect x="10.33333333" y="3.66666667" width="1.66666667" height="1.66666667" fill="black" /><rect x="2.00000000" y="5.33333333" width="1.66666667" height="1.66666667" fill="black" /><rect x="8.66666667" y="5.33333333" width="1.66666667" height="1.66666667" fill="black" /><rect x="10.33333333" y="5.33333333" width="1.66666667" height="1.66666667" fill="black" /><rect x="2.00000000" y="7.00000000" width="1.66666667" height="1.66666667" fill="black" /><rect x="7.00000000" y="7.00000000" width="1.66666667" height="1.66666667" fill="black" /><rect x="8.66666667" y="7.00000000" width="1.66666667" height="1.66666667" fill="black" /><rect x="10.33333333" y="7.00000000" width="1.66666667" height="1.66666667" fill="black" /><rect x="2.00000000" y="8.66666667" width="1.66666667" height="1.66666667" fill="black" /><rect x="10.33333333" y="8.66666667" width="1.66666667" height="1.66666667" fill="black" /><rect x="2.00000000" y="10.33333333" width="1.66666667" height="1.66666667" fill="black" /><rect x="3.66666667" y="10.33333333" width="1.66666667" height="1.66666667" fill="black" /><rect x="5.33333333" y="10.33333333" width="1.66666667" height="1.66666667" fill="black" /><rect x="7.00000000" y="10.33333333" width="1.66666667" height="1.66666667" fill="black" /><rect x="8.66666667" y="10.33333333" width="1.66666667" height="1.66666667" fill="black" /><rect x="10.33333333" y="10.33333333" width="1.66666667" height="1.66666667" fill="black" /><text x="0" y="18" font-size="2.5">ID 32 | top = +Y</text></g><g transform="translate(130 20)" data-marker-id="33" data-black-edge-mm="10" data-quiet-zone-mm="2"><rect x="2.00000000" y="2.00000000" width="1.66666667" height="1.66666667" fill="black" /><rect x="3.66666667" y="2.00000000" width="1.66666667" height="1.66666667" fill="black" /><rect x="5.33333333" y="2.00000000" width="1.66666667" height="1.66666667" fill="black" /><rect x="7.00000000" y="2.00000000" width="1.66666667" height="1.66666667" fill="black" /><rect x="8.66666667" y="2.00000000" width="1.66666667" height="1.66666667" fill="black" /><rect x="10.33333333" y="2.00000000" width="1.66666667" height="1.66666667" fill="black" /><rect x="2.00000000" y="3.66666667" width="1.66666667" height="1.66666667" fill="black" /><rect x="10.33333333" y="3.66666667" width="1.66666667" height="1.66666667" fill="black" /><rect x="2.00000000" y="5.33333333" width="1.66666667" height="1.66666667" fill="black" /><rect x="3.66666667" y="5.33333333" width="1.66666667" height="1.66666667" fill="black" /><rect x="5.33333333" y="5.33333333" width="1.66666667" height="1.66666667" fill="black" /><rect x="7.00000000" y="5.33333333" width="1.66666667" height="1.66666667" fill="black" /><rect x="8.66666667" y="5.33333333" width="1.66666667" height="1.66666667" fill="black" /><rect x="10.33333333" y="5.33333333" width="1.66666667" height="1.66666667" fill="black" /><rect x="2.00000000" y="7.00000000" width="1.66666667" height="1.66666667" fill="black" /><rect x="7.00000000" y="7.00000000" width="1.66666667" height="1.66666667" fill="black" /><rect x="8.66666667" y="7.00000000" width="1.66666667" height="1.66666667" fill="black" /><rect x="10.33333333" y="7.00000000" width="1.66666667" height="1.66666667" fill="black" /><rect x="2.00000000" y="8.66666667" width="1.66666667" height="1.66666667" fill="black" /><rect x="5.33333333" y="8.66666667" width="1.66666667" height="1.66666667" fill="black" /><rect x="10.33333333" y="8.66666667" width="1.66666667" height="1.66666667" fill="black" /><rect x="2.00000000" y="10.33333333" width="1.66666667" height="1.66666667" fill="black" /><rect x="3.66666667" y="10.33333333" width="1.66666667" height="1.66666667" fill="black" /><rect x="5.33333333" y="10.33333333" width="1.66666667" height="1.66666667" fill="black" /><rect x="7.00000000" y="10.33333333" width="1.66666667" height="1.66666667" fill="black" /><rect x="8.66666667" y="10.33333333" width="1.66666667" height="1.66666667" fill="black" /><rect x="10.33333333" y="10.33333333" width="1.66666667" height="1.66666667" fill="black" /><text x="0" y="18" font-size="2.5">ID 33 | top = +Y</text></g></svg>